<?xml version="1.0" standalone="no"?>
<!DOCTYPE svg PUBLIC "-//W3C//DTD SVG 1.1//EN" "http://www.w3.org/Graphics/SVG/1.1/DTD/svg11.dtd" >
<svg xmlns="http://www.w3.org/2000/svg">
<defs>
  <font id="MaterialIcons-Regular" horiz-adv-x="512">
    <font-face font-family="MaterialIcons-Regular"
      units-per-em="512" ascent="512"
      descent="0"
      font-weight="400"
      font-style="normal" />
    <missing-glyph horiz-adv-x="0" />
    <glyph glyph-name="3d_rotation"
      unicode="&#x33;&#x64;&#x5F;&#x72;&#x6F;&#x74;&#x61;&#x74;&#x69;&#x6F;&#x6E;"
      horiz-adv-x="512" d="M160.4266666666667 53.76C90.6666666666667 86.6133333333334 40.7466666666667 154.4533333333333 33.0666666666667 234.6666666666667H1.0666666666667C11.9466666666667 103.2533333333333 121.8133333333333 0 256 0L270.08 0.64L188.8 81.92L160.4266666666667 53.76zM179.4133333333333 192.8533333333334C175.36 192.8533333333334 171.52 193.4933333333334 168.32 194.56C164.9066666666667 195.84 162.1333333333333 197.3333333333334 159.7866666666667 199.68C157.44 201.8133333333333 155.52 204.3733333333333 154.24 207.5733333333333C152.96 210.56 152.32 213.9733333333334 152.32 217.6H124.5866666666667C124.5866666666667 209.92 126.08 203.0933333333334 129.0666666666667 197.3333333333334C132.0533333333334 191.5733333333334 136.1066666666667 186.6666666666667 141.0133333333334 182.6133333333334C146.1333333333334 178.7733333333334 151.8933333333334 175.7866666666667 158.5066666666667 173.8666666666667C164.9066666666667 171.7333333333334 171.7333333333334 170.6666666666667 178.9866666666667 170.6666666666667C186.88 170.6666666666667 194.3466666666667 171.7333333333334 200.96 173.8666666666667C207.7866666666667 176 213.76 179.2000000000001 218.6666666666667 183.2533333333333S227.6266666666667 192.4266666666667 230.4 198.6133333333334C233.1733333333334 204.8 234.6666666666667 211.6266666666667 234.6666666666667 219.3066666666667C234.6666666666667 223.36 234.24 227.4133333333334 233.1733333333333 231.2533333333334C232.1066666666667 235.0933333333334 230.6133333333334 238.7200000000001 228.2666666666667 242.1333333333334C226.1333333333334 245.5466666666668 223.1466666666667 248.5333333333334 219.7333333333333 251.3066666666668C216.1066666666666 254.0800000000001 211.84 256.2133333333334 206.72 257.9200000000001C210.9866666666666 259.8400000000001 214.6133333333333 262.1866666666667 217.8133333333333 264.9600000000001C221.0133333333333 267.7333333333334 223.5733333333333 270.7200000000001 225.7066666666666 273.9200000000001C227.84 277.1200000000001 229.3333333333333 280.3200000000001 230.4 283.7333333333334C231.4666666666667 287.1466666666668 231.8933333333333 290.5600000000001 231.8933333333333 293.9733333333334C231.8933333333333 301.6533333333334 230.6133333333333 308.4800000000001 228.0533333333333 314.4533333333334C225.4933333333334 320.4266666666668 221.8666666666667 325.3333333333334 217.1733333333333 329.1733333333334C212.9066666666667 333.2266666666667 207.1466666666667 336.2133333333334 200.7466666666667 338.3466666666667C194.1333333333333 340.2666666666667 186.88 341.3333333333334 178.9866666666667 341.3333333333334C171.3066666666667 341.3333333333334 164.2666666666667 340.2666666666667 157.6533333333333 337.92C151.2533333333333 335.5733333333334 145.4933333333334 332.3733333333334 140.8 328.3200000000001C136.32 324.2666666666667 132.6933333333333 319.5733333333334 129.92 314.0266666666667C127.36 308.48 126.08 302.5066666666667 126.08 295.8933333333334H153.8133333333333C153.8133333333333 299.5200000000001 154.4533333333334 302.7200000000001 155.7333333333334 305.4933333333334S158.72 310.8266666666667 161.0666666666667 312.7466666666667C163.4133333333334 314.6666666666667 165.9733333333334 316.3733333333334 169.1733333333334 317.4400000000001C172.3733333333333 318.5066666666667 175.5733333333333 319.1466666666667 179.4133333333333 319.1466666666667C187.9466666666667 319.1466666666667 194.3466666666666 317.0133333333334 198.4 312.5333333333334C202.4533333333333 308.2666666666667 204.5866666666667 302.0800000000001 204.5866666666667 294.1866666666667C204.5866666666667 290.3466666666667 203.9466666666667 286.9333333333334 202.88 283.7333333333334C201.8133333333333 280.5333333333334 199.8933333333333 277.9733333333334 197.5466666666667 275.8400000000001C195.2 273.7066666666667 192.2133333333333 272.0000000000001 188.8 270.7200000000001C185.3866666666667 269.4400000000001 181.12 268.8000000000001 176.4266666666667 268.8000000000001H160V246.8266666666667H176.4266666666667C181.12 246.8266666666667 185.3866666666667 246.4000000000001 189.2266666666666 245.3333333333334S196.2666666666667 242.5600000000001 198.8266666666666 240.4266666666668C201.3866666666666 238.0800000000001 203.52 235.3066666666668 205.0133333333333 231.8933333333334C206.5066666666666 228.48 207.1466666666666 224.4266666666667 207.1466666666666 219.7333333333334C207.1466666666666 210.9866666666667 204.5866666666666 204.3733333333333 199.68 199.8933333333334C194.7733333333333 194.9866666666667 187.9466666666666 192.8533333333334 179.4133333333333 192.8533333333334zM361.8133333333334 319.1466666666667C354.9866666666667 326.1866666666667 346.88 331.7333333333334 337.4933333333334 335.5733333333333C328.32 339.4133333333333 317.8666666666667 341.3333333333333 306.3466666666667 341.3333333333333H256V170.6666666666667H305.0666666666667C316.8 170.6666666666667 327.68 172.5866666666667 337.28 176.4266666666667C346.88 180.2666666666667 355.2000000000001 185.6 362.0266666666667 192.64C368.8533333333333 199.68 374.1866666666666 208.2133333333334 377.8133333333333 218.0266666666667C381.44 228.0533333333334 383.36 239.1466666666667 383.36 251.52V260.0533333333334C383.36 272.4266666666667 381.44 283.52 377.8133333333333 293.5466666666667C373.9733333333333 303.5733333333334 368.64 312.1066666666667 361.8133333333333 319.1466666666667zM353.4933333333334 251.7333333333334C353.4933333333334 242.7733333333333 352.4266666666666 234.88 350.5066666666667 227.6266666666667C348.3733333333333 220.5866666666667 345.3866666666667 214.4 341.3333333333333 209.4933333333334C337.28 204.5866666666667 332.16 200.7466666666667 326.1866666666666 198.1866666666667C320 195.6266666666667 312.96 194.3466666666667 305.0666666666666 194.3466666666667H285.6533333333333V317.4400000000001H306.3466666666667C321.7066666666667 317.4400000000001 333.44 312.5333333333334 341.3333333333333 302.7200000000001C349.44 292.9066666666667 353.4933333333334 278.8266666666667 353.4933333333334 260.2666666666667V251.7333333333334zM256 512L241.92 511.36L323.2 430.0800000000001L351.5733333333333 458.4533333333333C421.3333333333333 425.3866666666667 471.2533333333333 357.76 478.72 277.5466666666667H510.72C500.0533333333333 408.7466666666667 390.1866666666666 512 256 512z" />
    <glyph glyph-name="accessibility"
      unicode="&#x61;&#x63;&#x63;&#x65;&#x73;&#x73;&#x69;&#x62;&#x69;&#x6C;&#x69;&#x74;&#x79;"
      horiz-adv-x="512" d="M256 469.3333333333333C279.4666666666667 469.3333333333333 298.6666666666667 450.1333333333334 298.6666666666667 426.6666666666667S279.4666666666667 384 256 384S213.3333333333333 403.2000000000001 213.3333333333333 426.6666666666667S232.5333333333334 469.3333333333333 256 469.3333333333333zM448 320H320V42.6666666666667H277.3333333333333V170.6666666666667H234.6666666666667V42.6666666666667H192V320H64V362.6666666666667H448V320z" />
    <glyph glyph-name="accessible"
      unicode="&#x61;&#x63;&#x63;&#x65;&#x73;&#x73;&#x69;&#x62;&#x6C;&#x65;"
      horiz-adv-x="512" d="M213.3333333333333 426.6666666666667A42.666666666666664 42.666666666666664 0 0 1 298.6666666666667 426.6666666666667A42.666666666666664 42.666666666666664 0 0 1 213.3333333333333 426.6666666666667M405.3333333333333 234.6666666666667V277.3333333333334C372.48 276.9066666666667 339.4133333333333 293.3333333333334 318.5066666666667 316.3733333333334L290.9866666666667 346.88C287.36 350.9333333333334 282.88 354.1333333333334 277.9733333333334 356.48C277.76 356.48 277.76 356.6933333333334 277.5466666666667 356.6933333333334H277.3333333333333C269.8666666666667 360.9600000000001 261.3333333333333 363.0933333333334 251.9466666666667 362.24C229.5466666666667 360.32 213.3333333333333 340.48 213.3333333333333 318.0800000000001V192C213.3333333333333 168.5333333333333 232.5333333333334 149.3333333333334 256 149.3333333333334H362.6666666666667V42.6666666666667H405.3333333333333V160C405.3333333333333 183.4666666666667 386.1333333333334 202.6666666666667 362.6666666666667 202.6666666666667H298.6666666666667V276.2666666666667C326.1866666666666 253.44 368 234.88 405.3333333333333 234.6666666666667zM273.7066666666667 128C264.96 103.2533333333333 241.28 85.3333333333334 213.3333333333333 85.3333333333334C177.92 85.3333333333334 149.3333333333333 113.92 149.3333333333333 149.3333333333334C149.3333333333333 177.28 167.2533333333333 200.7466666666667 192 209.7066666666667V253.8666666666667C143.36 244.0533333333334 106.6666666666667 200.96 106.6666666666667 149.3333333333334C106.6666666666667 90.4533333333334 154.4533333333333 42.6666666666667 213.3333333333333 42.6666666666667C264.96 42.6666666666667 308.0533333333334 79.36 317.8666666666667 128H273.7066666666667z" />
    <glyph glyph-name="account_balance"
      unicode="&#x61;&#x63;&#x63;&#x6F;&#x75;&#x6E;&#x74;&#x5F;&#x62;&#x61;&#x6C;&#x61;&#x6E;&#x63;&#x65;"
      horiz-adv-x="512" d="M85.3333333333333 298.6666666666667V149.3333333333334H149.3333333333333V298.6666666666667H85.3333333333333zM213.3333333333333 298.6666666666667V149.3333333333334H277.3333333333333V298.6666666666667H213.3333333333333zM42.6666666666667 42.6666666666667H448V106.6666666666667H42.6666666666667V42.6666666666667zM341.3333333333333 298.6666666666667V149.3333333333334H405.3333333333333V298.6666666666667H341.3333333333333zM245.3333333333333 490.6666666666667L42.6666666666667 384V341.3333333333334H448V384L245.3333333333333 490.6666666666667z" />
    <glyph glyph-name="account_balance_wallet"
      unicode="&#x61;&#x63;&#x63;&#x6F;&#x75;&#x6E;&#x74;&#x5F;&#x62;&#x61;&#x6C;&#x61;&#x6E;&#x63;&#x65;&#x5F;&#x77;&#x61;&#x6C;&#x6C;&#x65;&#x74;"
      horiz-adv-x="512" d="M448 128V106.6666666666667C448 83.2 428.8 64 405.3333333333333 64H106.6666666666667C82.9866666666667 64 64 83.2 64 106.6666666666667V405.3333333333334C64 428.8 82.9866666666667 448 106.6666666666667 448H405.3333333333333C428.8 448 448 428.8 448 405.3333333333334V384H256C232.32 384 213.3333333333333 364.8 213.3333333333333 341.3333333333334V170.6666666666667C213.3333333333333 147.2 232.32 128 256 128H448zM256 170.6666666666667H469.3333333333333V341.3333333333334H256V170.6666666666667zM341.3333333333333 224C323.6266666666667 224 309.3333333333333 238.2933333333334 309.3333333333333 256S323.6266666666667 288 341.3333333333333 288S373.3333333333333 273.7066666666667 373.3333333333333 256S359.04 224 341.3333333333333 224z" />
    <glyph glyph-name="account_box"
      unicode="&#x61;&#x63;&#x63;&#x6F;&#x75;&#x6E;&#x74;&#x5F;&#x62;&#x6F;&#x78;"
      horiz-adv-x="512" d="M64 405.3333333333334V106.6666666666667C64 83.2 82.9866666666667 64 106.6666666666667 64H405.3333333333333C428.8 64 448 83.2 448 106.6666666666667V405.3333333333334C448 428.8 428.8 448 405.3333333333333 448H106.6666666666667C82.9866666666667 448 64 428.8 64 405.3333333333334zM320 320C320 284.5866666666667 291.4133333333333 256 256 256S192 284.5866666666667 192 320S220.5866666666667 384 256 384S320 355.4133333333334 320 320zM128 149.3333333333334C128 192 213.3333333333333 215.4666666666667 256 215.4666666666667S384 192 384 149.3333333333334V128H128V149.3333333333334z" />
    <glyph glyph-name="account_circle"
      unicode="&#x61;&#x63;&#x63;&#x6F;&#x75;&#x6E;&#x74;&#x5F;&#x63;&#x69;&#x72;&#x63;&#x6C;&#x65;"
      horiz-adv-x="512" d="M256 469.3333333333333C138.24 469.3333333333333 42.6666666666667 373.76 42.6666666666667 256S138.24 42.6666666666667 256 42.6666666666667S469.3333333333333 138.24 469.3333333333333 256S373.76 469.3333333333333 256 469.3333333333333zM256 405.3333333333334C291.4133333333333 405.3333333333334 320 376.7466666666667 320 341.3333333333334S291.4133333333333 277.3333333333334 256 277.3333333333334S192 305.92 192 341.3333333333334S220.5866666666667 405.3333333333334 256 405.3333333333334zM256 102.4C202.6666666666667 102.4 155.52 129.7066666666667 128 171.0933333333334C128.64 213.5466666666668 213.3333333333333 236.8000000000001 256 236.8000000000001C298.4533333333333 236.8000000000001 383.36 213.5466666666668 384 171.0933333333334C356.48 129.7066666666667 309.3333333333333 102.4 256 102.4z" />
    <glyph glyph-name="add_shopping_cart"
      unicode="&#x61;&#x64;&#x64;&#x5F;&#x73;&#x68;&#x6F;&#x70;&#x70;&#x69;&#x6E;&#x67;&#x5F;&#x63;&#x61;&#x72;&#x74;"
      horiz-adv-x="512" d="M234.6666666666667 320H277.3333333333333V384H341.3333333333333V426.6666666666667H277.3333333333333V490.6666666666667H234.6666666666667V426.6666666666667H170.6666666666667V384H234.6666666666667V320zM149.3333333333333 128C125.8666666666667 128 106.88 108.8000000000001 106.88 85.3333333333334S125.8666666666667 42.6666666666667 149.3333333333333 42.6666666666667S192 61.8666666666667 192 85.3333333333334S172.8 128 149.3333333333333 128zM362.6666666666667 128C339.2 128 320.2133333333333 108.8000000000001 320.2133333333333 85.3333333333334S339.2 42.6666666666667 362.6666666666667 42.6666666666667S405.3333333333333 61.8666666666667 405.3333333333333 85.3333333333334S386.1333333333334 128 362.6666666666667 128zM152.96 197.3333333333334L153.6 199.8933333333333L172.8 234.6666666666667H331.7333333333334C347.7333333333334 234.6666666666667 361.8133333333334 243.4133333333334 369.0666666666667 256.64L451.4133333333333 406.1866666666667L414.2933333333334 426.6666666666667H414.08L390.6133333333333 384L331.7333333333333 277.3333333333334H181.9733333333333L179.2 283.0933333333334L131.4133333333333 384L111.1466666666667 426.6666666666667L91.0933333333333 469.3333333333333H21.3333333333333V426.6666666666667H64L140.8 264.7466666666667L112 212.48C108.5866666666667 206.5066666666667 106.6666666666667 199.4666666666667 106.6666666666667 192C106.6666666666667 168.5333333333333 125.8666666666667 149.3333333333334 149.3333333333333 149.3333333333334H405.3333333333333V192H158.2933333333333C155.52 192 152.96 194.3466666666667 152.96 197.3333333333334z" />
    <glyph glyph-name="alarm"
      unicode="&#x61;&#x6C;&#x61;&#x72;&#x6D;"
      horiz-adv-x="512" d="M469.3333333333333 389.9733333333334L371.2 472.32L343.68 439.68L441.8133333333334 357.3333333333334L469.3333333333333 389.9733333333334zM168.1066666666667 439.68L140.8 472.32L42.6666666666667 390.1866666666667L70.1866666666667 357.5466666666667L168.1066666666667 439.68zM266.6666666666667 341.3333333333334H234.6666666666667V213.3333333333334L336 152.5333333333333L352 178.7733333333333L266.6666666666667 229.3333333333334V341.3333333333334zM256 426.6666666666667C149.9733333333333 426.6666666666667 64 340.6933333333334 64 234.6666666666667S149.76 42.6666666666667 256 42.6666666666667C362.0266666666667 42.6666666666667 448 128.6400000000001 448 234.6666666666667S362.0266666666667 426.6666666666667 256 426.6666666666667zM256 85.3333333333334C173.44 85.3333333333334 106.6666666666667 152.1066666666667 106.6666666666667 234.6666666666667S173.44 384 256 384S405.3333333333333 317.2266666666667 405.3333333333333 234.6666666666667S338.56 85.3333333333334 256 85.3333333333334z" />
    <glyph glyph-name="alarm_add"
      unicode="&#x61;&#x6C;&#x61;&#x72;&#x6D;&#x5F;&#x61;&#x64;&#x64;"
      horiz-adv-x="512" d="M168.1066666666667 439.68L140.8 472.32L42.6666666666667 390.1866666666667L70.1866666666667 357.5466666666667L168.1066666666667 439.68zM469.3333333333333 389.9733333333334L371.2 472.32L343.68 439.68L441.8133333333334 357.3333333333334L469.3333333333333 389.9733333333334zM256 426.6666666666667C149.9733333333333 426.6666666666667 64 340.6933333333334 64 234.6666666666667S149.76 42.6666666666667 256 42.6666666666667C362.0266666666667 42.6666666666667 448 128.6400000000001 448 234.6666666666667S362.0266666666667 426.6666666666667 256 426.6666666666667zM256 85.3333333333334C173.44 85.3333333333334 106.6666666666667 152.1066666666667 106.6666666666667 234.6666666666667S173.44 384 256 384S405.3333333333333 317.2266666666667 405.3333333333333 234.6666666666667S338.56 85.3333333333334 256 85.3333333333334zM277.3333333333333 320H234.6666666666667V256H170.6666666666667V213.3333333333334H234.6666666666667V149.3333333333334H277.3333333333333V213.3333333333334H341.3333333333333V256H277.3333333333333V320z" />
    <glyph glyph-name="alarm_off"
      unicode="&#x61;&#x6C;&#x61;&#x72;&#x6D;&#x5F;&#x6F;&#x66;&#x66;"
      horiz-adv-x="512" d="M256 384C338.56 384 405.3333333333333 317.2266666666667 405.3333333333333 234.6666666666667C405.3333333333333 216.7466666666667 401.92 199.4666666666667 396.16 183.4666666666667L428.5866666666667 151.04C440.9599999999999 176.4266666666666 448 204.5866666666667 448 234.6666666666667C448 340.6933333333334 362.0266666666667 426.6666666666667 256 426.6666666666667C225.92 426.6666666666667 197.76 419.6266666666667 172.3733333333333 407.2533333333334L204.8 374.8266666666667C220.8 380.5866666666667 238.08 384 256 384zM469.3333333333333 389.9733333333334L371.2 472.32L343.68 439.68L441.8133333333334 357.3333333333334L469.3333333333333 389.9733333333334zM62.2933333333333 463.1466666666666L35.2 435.8400000000001L63.5733333333333 407.4666666666667L39.8933333333333 387.6266666666667L70.1866666666667 357.3333333333334L93.8666666666667 377.3866666666667L110.9333333333333 360.32C81.7066666666667 326.6133333333334 64 282.6666666666667 64 234.6666666666667C64 128.6400000000001 149.76 42.6666666666667 256 42.6666666666667C304 42.6666666666667 347.9466666666666 60.3733333333333 381.6533333333333 89.6L428.5866666666667 42.6666666666667L455.6799999999999 69.76L82.9866666666667 442.24L62.2933333333333 463.1466666666666zM351.36 119.68C325.5466666666666 98.3466666666667 292.2666666666667 85.3333333333334 256 85.3333333333334C173.44 85.3333333333334 106.6666666666667 152.1066666666667 106.6666666666667 234.6666666666667C106.6666666666667 270.9333333333334 119.68 304.2133333333334 141.0133333333333 330.0266666666667L351.36 119.68zM171.0933333333333 442.0266666666667L140.8 472.32L122.4533333333333 457.1733333333333L152.7466666666667 426.88L171.0933333333333 442.0266666666667z" />
    <glyph glyph-name="alarm_on"
      unicode="&#x61;&#x6C;&#x61;&#x72;&#x6D;&#x5F;&#x6F;&#x6E;"
      horiz-adv-x="512" d="M469.3333333333333 389.9733333333334L371.2 472.32L343.68 439.68L441.8133333333334 357.3333333333334L469.3333333333333 389.9733333333334zM168.1066666666667 439.68L140.8 472.32L42.6666666666667 390.1866666666667L70.1866666666667 357.5466666666667L168.1066666666667 439.68zM256 426.6666666666667C149.9733333333333 426.6666666666667 64 340.6933333333334 64 234.6666666666667S149.76 42.6666666666667 256 42.6666666666667C362.0266666666667 42.6666666666667 448 128.6400000000001 448 234.6666666666667S362.0266666666667 426.6666666666667 256 426.6666666666667zM256 85.3333333333334C173.44 85.3333333333334 106.6666666666667 152.1066666666667 106.6666666666667 234.6666666666667S173.44 384 256 384S405.3333333333333 317.2266666666667 405.3333333333333 234.6666666666667S338.56 85.3333333333334 256 85.3333333333334zM224.8533333333333 202.0266666666667L179.4133333333333 247.4666666666667L156.8 224.8533333333334L224.64 157.0133333333333L352.64 285.0133333333333L330.0266666666667 307.6266666666667L224.8533333333334 202.0266666666667z" />
    <glyph glyph-name="all_out"
      unicode="&#x61;&#x6C;&#x6C;&#x5F;&#x6F;&#x75;&#x74;"
      horiz-adv-x="512" d="M345.8133333333334 423.2533333333334L431.1466666666667 337.92V423.2533333333334zM431.1466666666667 167.2533333333333L345.8133333333334 81.92H431.1466666666667zM175.1466666666667 81.92L89.8133333333334 167.2533333333333V81.92zM89.8133333333334 337.92L175.1466666666667 423.2533333333334H89.8133333333334zM366.08 358.1866666666667C307.84 416.4266666666667 213.12 416.4266666666667 154.88 358.1866666666667S96.64 205.2266666666667 154.88 146.9866666666667S307.84 88.7466666666667 366.08 146.9866666666667S424.32 299.7333333333334 366.08 358.1866666666667zM342.6133333333333 170.4533333333333C297.1733333333333 125.0133333333333 223.7866666666666 125.0133333333333 178.3466666666666 170.4533333333333S132.9066666666667 289.28 178.3466666666666 334.72S297.1733333333333 380.16 342.6133333333333 334.72S388.0533333333333 215.8933333333333 342.6133333333333 170.4533333333333z" />
    <glyph glyph-name="android"
      unicode="&#x61;&#x6E;&#x64;&#x72;&#x6F;&#x69;&#x64;"
      horiz-adv-x="512" d="M128 128C128 116.2666666666667 137.6 106.6666666666667 149.3333333333333 106.6666666666667H170.6666666666667V32C170.6666666666667 14.2933333333334 184.96 0 202.6666666666667 0S234.6666666666667 14.2933333333334 234.6666666666667 32V106.6666666666667H277.3333333333333V32C277.3333333333333 14.2933333333334 291.6266666666667 0 309.3333333333333 0S341.3333333333333 14.2933333333334 341.3333333333333 32V106.6666666666667H362.6666666666667C374.4 106.6666666666667 384 116.2666666666667 384 128V341.3333333333334H128V128zM74.6666666666667 341.3333333333334C56.96 341.3333333333334 42.6666666666667 327.04 42.6666666666667 309.3333333333334V160C42.6666666666667 142.2933333333334 56.96 128 74.6666666666667 128S106.6666666666667 142.2933333333334 106.6666666666667 160V309.3333333333334C106.6666666666667 327.04 92.3733333333333 341.3333333333334 74.6666666666667 341.3333333333334zM437.3333333333333 341.3333333333334C419.6266666666667 341.3333333333334 405.3333333333333 327.04 405.3333333333333 309.3333333333334V160C405.3333333333333 142.2933333333334 419.6266666666667 128 437.3333333333333 128S469.3333333333333 142.2933333333334 469.3333333333333 160V309.3333333333334C469.3333333333333 327.04 455.04 341.3333333333334 437.3333333333333 341.3333333333334zM331.3066666666667 465.92L359.04 493.6533333333333C363.3066666666667 497.92 363.3066666666667 504.5333333333333 359.04 508.8C354.7733333333334 513.0666666666667 348.16 513.0666666666667 343.8933333333333 508.8L312.32 477.2266666666667C295.4666666666667 485.76 276.2666666666667 490.6666666666667 256 490.6666666666667C235.52 490.6666666666667 216.32 485.76 199.2533333333333 477.2266666666667L167.4666666666667 508.8C163.2 513.0666666666667 156.5866666666667 513.0666666666667 152.32 508.8C148.0533333333333 504.5333333333334 148.0533333333333 497.92 152.32 493.6533333333333L180.2666666666667 465.7066666666666C148.6933333333333 442.4533333333334 128 405.12 128 362.6666666666667H384C384 405.12 363.3066666666667 442.6666666666667 331.3066666666666 465.92zM213.3333333333333 405.3333333333334H192V426.6666666666667H213.3333333333333V405.3333333333334zM320 405.3333333333334H298.6666666666667V426.6666666666667H320V405.3333333333334z" />
    <glyph glyph-name="announcement"
      unicode="&#x61;&#x6E;&#x6E;&#x6F;&#x75;&#x6E;&#x63;&#x65;&#x6D;&#x65;&#x6E;&#x74;"
      horiz-adv-x="512" d="M426.6666666666667 469.3333333333333H85.3333333333333C61.8666666666667 469.3333333333333 42.88 450.1333333333334 42.88 426.6666666666667L42.6666666666667 42.6666666666667L128 128H426.6666666666667C450.1333333333334 128 469.3333333333333 147.2 469.3333333333333 170.6666666666667V426.6666666666667C469.3333333333333 450.1333333333334 450.1333333333334 469.3333333333333 426.6666666666667 469.3333333333333zM277.3333333333333 277.3333333333334H234.6666666666667V405.3333333333334H277.3333333333333V277.3333333333334zM277.3333333333333 192H234.6666666666667V234.6666666666667H277.3333333333333V192z" />
    <glyph glyph-name="aspect_ratio"
      unicode="&#x61;&#x73;&#x70;&#x65;&#x63;&#x74;&#x5F;&#x72;&#x61;&#x74;&#x69;&#x6F;"
      horiz-adv-x="512" d="M405.3333333333333 256H362.6666666666667V192H298.6666666666667V149.3333333333334H405.3333333333333V256zM149.3333333333333 320H213.3333333333333V362.6666666666667H106.6666666666667V256H149.3333333333333V320zM448 448H64C40.5333333333333 448 21.3333333333333 428.8 21.3333333333333 405.3333333333334V106.6666666666667C21.3333333333333 83.2 40.5333333333333 64 64 64H448C471.4666666666667 64 490.6666666666666 83.2 490.6666666666666 106.6666666666667V405.3333333333334C490.6666666666666 428.8 471.4666666666667 448 448 448zM448 106.4533333333333H64V405.5466666666667H448V106.4533333333334z" />
    <glyph glyph-name="assessment"
      unicode="&#x61;&#x73;&#x73;&#x65;&#x73;&#x73;&#x6D;&#x65;&#x6E;&#x74;"
      horiz-adv-x="512" d="M405.3333333333333 448H106.6666666666667C83.2 448 64 428.8 64 405.3333333333334V106.6666666666667C64 83.2 83.2 64 106.6666666666667 64H405.3333333333333C428.8 64 448 83.2 448 106.6666666666667V405.3333333333334C448 428.8 428.8 448 405.3333333333333 448zM192 149.3333333333334H149.3333333333333V298.6666666666667H192V149.3333333333334zM277.3333333333333 149.3333333333334H234.6666666666667V362.6666666666667H277.3333333333333V149.3333333333334zM362.6666666666667 149.3333333333334H320V234.6666666666667H362.6666666666667V149.3333333333334z" />
    <glyph glyph-name="assignment"
      unicode="&#x61;&#x73;&#x73;&#x69;&#x67;&#x6E;&#x6D;&#x65;&#x6E;&#x74;"
      horiz-adv-x="512" d="M405.3333333333333 448H316.16C307.2 472.7466666666667 283.7333333333334 490.6666666666667 256 490.6666666666667C228.2666666666667 490.6666666666667 204.8 472.7466666666667 195.84 448H106.6666666666667C83.2 448 64 428.8 64 405.3333333333334V106.6666666666667C64 83.2 83.2 64 106.6666666666667 64H405.3333333333333C428.8 64 448 83.2 448 106.6666666666667V405.3333333333334C448 428.8 428.8 448 405.3333333333333 448zM256 448C267.7333333333334 448 277.3333333333333 438.4 277.3333333333333 426.6666666666667S267.7333333333334 405.3333333333334 256 405.3333333333334S234.6666666666667 414.9333333333334 234.6666666666667 426.6666666666667S244.2666666666667 448 256 448zM298.6666666666667 149.3333333333334H149.3333333333333V192H298.6666666666667V149.3333333333334zM362.6666666666667 234.6666666666667H149.3333333333333V277.3333333333334H362.6666666666667V234.6666666666667zM362.6666666666667 320H149.3333333333333V362.6666666666667H362.6666666666667V320z" />
    <glyph glyph-name="assignment_ind"
      unicode="&#x61;&#x73;&#x73;&#x69;&#x67;&#x6E;&#x6D;&#x65;&#x6E;&#x74;&#x5F;&#x69;&#x6E;&#x64;"
      horiz-adv-x="512" d="M405.3333333333333 448H316.16C307.2 472.7466666666667 283.7333333333334 490.6666666666667 256 490.6666666666667C228.2666666666667 490.6666666666667 204.8 472.7466666666667 195.84 448H106.6666666666667C83.2 448 64 428.8 64 405.3333333333334V106.6666666666667C64 83.2 83.2 64 106.6666666666667 64H405.3333333333333C428.8 64 448 83.2 448 106.6666666666667V405.3333333333334C448 428.8 428.8 448 405.3333333333333 448zM256 448C267.7333333333334 448 277.3333333333333 438.4 277.3333333333333 426.6666666666667S267.7333333333334 405.3333333333334 256 405.3333333333334S234.6666666666667 414.9333333333334 234.6666666666667 426.6666666666667S244.2666666666667 448 256 448zM256 362.6666666666667C291.4133333333333 362.6666666666667 320 334.0800000000001 320 298.6666666666667S291.4133333333333 234.6666666666667 256 234.6666666666667S192 263.2533333333334 192 298.6666666666667S220.5866666666667 362.6666666666667 256 362.6666666666667zM384 106.6666666666667H128V136.5333333333333C128 179.2 213.3333333333333 202.6666666666666 256 202.6666666666666S384 179.2 384 136.5333333333333V106.6666666666667z" />
    <glyph glyph-name="assignment_late"
      unicode="&#x61;&#x73;&#x73;&#x69;&#x67;&#x6E;&#x6D;&#x65;&#x6E;&#x74;&#x5F;&#x6C;&#x61;&#x74;&#x65;"
      horiz-adv-x="512" d="M405.3333333333333 448H316.16C307.2 472.7466666666667 283.7333333333334 490.6666666666667 256 490.6666666666667C228.2666666666667 490.6666666666667 204.8 472.7466666666667 195.84 448H106.6666666666667C83.2 448 64 428.8 64 405.3333333333334V106.6666666666667C64 83.2 83.2 64 106.6666666666667 64H405.3333333333333C428.8 64 448 83.2 448 106.6666666666667V405.3333333333334C448 428.8 428.8 448 405.3333333333333 448zM277.3333333333333 128H234.6666666666667V170.6666666666667H277.3333333333333V128zM277.3333333333333 213.3333333333334H234.6666666666667V341.3333333333334H277.3333333333333V213.3333333333334zM256 405.3333333333334C244.2666666666667 405.3333333333334 234.6666666666667 414.9333333333334 234.6666666666667 426.6666666666667S244.2666666666667 448 256 448S277.3333333333333 438.4 277.3333333333333 426.6666666666667S267.7333333333334 405.3333333333334 256 405.3333333333334z" />
    <glyph glyph-name="assignment_returned"
      unicode="&#x61;&#x73;&#x73;&#x69;&#x67;&#x6E;&#x6D;&#x65;&#x6E;&#x74;&#x5F;&#x72;&#x65;&#x74;&#x75;&#x72;&#x6E;&#x65;&#x64;"
      horiz-adv-x="512" d="M405.3333333333333 448H316.16C307.2 472.7466666666667 283.7333333333334 490.6666666666667 256 490.6666666666667C228.2666666666667 490.6666666666667 204.8 472.7466666666667 195.84 448H106.6666666666667C83.2 448 64 428.8 64 405.3333333333334V106.6666666666667C64 83.2 83.2 64 106.6666666666667 64H405.3333333333333C428.8 64 448 83.2 448 106.6666666666667V405.3333333333334C448 428.8 428.8 448 405.3333333333333 448zM256 448C267.7333333333334 448 277.3333333333333 438.4 277.3333333333333 426.6666666666667S267.7333333333334 405.3333333333334 256 405.3333333333334S234.6666666666667 414.9333333333334 234.6666666666667 426.6666666666667S244.2666666666667 448 256 448zM256 128L149.3333333333333 234.6666666666667H213.3333333333333V320H298.6666666666667V234.6666666666667H362.6666666666667L256 128z" />
    <glyph glyph-name="assignment_return"
      unicode="&#x61;&#x73;&#x73;&#x69;&#x67;&#x6E;&#x6D;&#x65;&#x6E;&#x74;&#x5F;&#x72;&#x65;&#x74;&#x75;&#x72;&#x6E;"
      horiz-adv-x="512" d="M405.3333333333333 448H316.16C307.2 472.7466666666667 283.7333333333334 490.6666666666667 256 490.6666666666667C228.2666666666667 490.6666666666667 204.8 472.7466666666667 195.84 448H106.6666666666667C83.2 448 64 428.8 64 405.3333333333334V106.6666666666667C64 83.2 83.2 64 106.6666666666667 64H405.3333333333333C428.8 64 448 83.2 448 106.6666666666667V405.3333333333334C448 428.8 428.8 448 405.3333333333333 448zM256 448C267.7333333333334 448 277.3333333333333 438.4 277.3333333333333 426.6666666666667S267.7333333333334 405.3333333333334 256 405.3333333333334S234.6666666666667 414.9333333333334 234.6666666666667 426.6666666666667S244.2666666666667 448 256 448zM341.3333333333333 192H256V128L149.3333333333333 234.6666666666667L256 341.3333333333334V277.3333333333334H341.3333333333333V192z" />
    <glyph glyph-name="assignment_turned_in"
      unicode="&#x61;&#x73;&#x73;&#x69;&#x67;&#x6E;&#x6D;&#x65;&#x6E;&#x74;&#x5F;&#x74;&#x75;&#x72;&#x6E;&#x65;&#x64;&#x5F;&#x69;&#x6E;"
      horiz-adv-x="512" d="M405.3333333333333 448H316.16C307.2 472.7466666666667 283.7333333333334 490.6666666666667 256 490.6666666666667C228.2666666666667 490.6666666666667 204.8 472.7466666666667 195.84 448H106.6666666666667C83.2 448 64 428.8 64 405.3333333333334V106.6666666666667C64 83.2 83.2 64 106.6666666666667 64H405.3333333333333C428.8 64 448 83.2 448 106.6666666666667V405.3333333333334C448 428.8 428.8 448 405.3333333333333 448zM256 448C267.7333333333334 448 277.3333333333333 438.4 277.3333333333333 426.6666666666667S267.7333333333334 405.3333333333334 256 405.3333333333334S234.6666666666667 414.9333333333334 234.6666666666667 426.6666666666667S244.2666666666667 448 256 448zM213.3333333333333 149.3333333333334L128 234.6666666666667L158.08 264.7466666666667L213.3333333333333 209.7066666666667L353.92 350.2933333333334L384 320L213.3333333333333 149.3333333333334z" />
    <glyph glyph-name="autorenew"
      unicode="&#x61;&#x75;&#x74;&#x6F;&#x72;&#x65;&#x6E;&#x65;&#x77;"
      horiz-adv-x="512" d="M256 384V320L341.3333333333333 405.3333333333334L256 490.6666666666667V426.6666666666667C161.7066666666667 426.6666666666667 85.3333333333333 350.2933333333334 85.3333333333333 256C85.3333333333333 222.5066666666667 95.1466666666667 191.36 111.7866666666667 165.1200000000001L142.9333333333333 196.2666666666667C133.3333333333333 213.9733333333334 128 234.4533333333333 128 256C128 326.6133333333334 185.3866666666667 384 256 384zM400.2133333333333 346.88L369.0666666666667 315.7333333333334C378.4533333333334 297.8133333333334 384 277.5466666666668 384 256C384 185.3866666666667 326.6133333333334 128 256 128V192L170.6666666666667 106.6666666666667L256 21.3333333333334V85.3333333333334C350.2933333333334 85.3333333333334 426.6666666666667 161.7066666666667 426.6666666666667 256C426.6666666666667 289.4933333333334 416.8533333333333 320.64 400.2133333333334 346.88z" />
    <glyph glyph-name="backup"
      unicode="&#x62;&#x61;&#x63;&#x6B;&#x75;&#x70;"
      horiz-adv-x="512" d="M412.8 297.8133333333334C398.2933333333334 371.4133333333334 333.6533333333333 426.6666666666667 256 426.6666666666667C194.3466666666666 426.6666666666667 140.8 391.68 114.1333333333333 340.48C49.92 333.6533333333334 0 279.2533333333334 0 213.3333333333334C0 142.72 57.3866666666667 85.3333333333334 128 85.3333333333334H405.3333333333333C464.2133333333333 85.3333333333334 512 133.1200000000001 512 192C512 248.3200000000001 468.2666666666667 293.9733333333334 412.8 297.8133333333334zM298.6666666666667 234.6666666666667V149.3333333333334H213.3333333333333V234.6666666666667H149.3333333333333L256 341.3333333333334L362.6666666666667 234.6666666666667H298.6666666666667z" />
    <glyph glyph-name="bookmark"
      unicode="&#x62;&#x6F;&#x6F;&#x6B;&#x6D;&#x61;&#x72;&#x6B;"
      horiz-adv-x="512" d="M362.6666666666667 448H149.3333333333333C125.8666666666667 448 106.88 428.8 106.88 405.3333333333334L106.6666666666667 64L256 128L405.3333333333333 64V405.3333333333334C405.3333333333333 428.8 386.1333333333334 448 362.6666666666667 448z" />
    <glyph glyph-name="bookmark_border"
      unicode="&#x62;&#x6F;&#x6F;&#x6B;&#x6D;&#x61;&#x72;&#x6B;&#x5F;&#x62;&#x6F;&#x72;&#x64;&#x65;&#x72;"
      horiz-adv-x="512" d="M362.6666666666667 448H149.3333333333333C125.8666666666667 448 106.88 428.8 106.88 405.3333333333334L106.6666666666667 64L256 128L405.3333333333333 64V405.3333333333334C405.3333333333333 428.8 386.1333333333334 448 362.6666666666667 448zM362.6666666666667 128L256 174.5066666666667L149.3333333333333 128V405.3333333333334H362.6666666666667V128z" />
    <glyph glyph-name="book"
      unicode="&#x62;&#x6F;&#x6F;&#x6B;"
      horiz-adv-x="512" d="M384 469.3333333333333H128C104.5333333333333 469.3333333333333 85.3333333333333 450.1333333333334 85.3333333333333 426.6666666666667V85.3333333333334C85.3333333333333 61.8666666666667 104.5333333333333 42.6666666666667 128 42.6666666666667H384C407.4666666666667 42.6666666666667 426.6666666666667 61.8666666666667 426.6666666666667 85.3333333333334V426.6666666666667C426.6666666666667 450.1333333333334 407.4666666666667 469.3333333333333 384 469.3333333333333zM128 426.6666666666667H234.6666666666667V256L181.3333333333333 288L128 256V426.6666666666667z" />
    <glyph glyph-name="bug_report"
      unicode="&#x62;&#x75;&#x67;&#x5F;&#x72;&#x65;&#x70;&#x6F;&#x72;&#x74;"
      horiz-adv-x="512" d="M426.6666666666667 341.3333333333334H366.7200000000001C357.12 357.9733333333334 343.8933333333333 372.2666666666667 327.8933333333333 383.1466666666667L362.6666666666667 417.92L332.5866666666667 448L286.2933333333333 401.7066666666667C276.48 404.0533333333334 266.4533333333333 405.3333333333334 256 405.3333333333334C245.5466666666667 405.3333333333334 235.52 404.0533333333334 225.92 401.7066666666667L179.4133333333333 448L149.3333333333333 417.92L183.8933333333334 383.1466666666667C168.1066666666667 372.2666666666667 154.88 357.9733333333334 145.28 341.3333333333334H85.3333333333333V298.6666666666667H129.92C128.8533333333333 291.6266666666667 128 284.5866666666667 128 277.3333333333334V256H85.3333333333333V213.3333333333334H128V192C128 184.7466666666667 128.8533333333333 177.7066666666667 129.92 170.6666666666667H85.3333333333333V128H145.28C167.4666666666667 89.8133333333334 208.64 64 256 64S344.5333333333333 89.8133333333334 366.7200000000001 128H426.6666666666667V170.6666666666667H382.08C383.1466666666667 177.7066666666667 384 184.7466666666667 384 192V213.3333333333334H426.6666666666667V256H384V277.3333333333334C384 284.5866666666667 383.1466666666667 291.6266666666667 382.08 298.6666666666667H426.6666666666667V341.3333333333334zM298.6666666666667 170.6666666666667H213.3333333333333V213.3333333333334H298.6666666666667V170.6666666666667zM298.6666666666667 256H213.3333333333333V298.6666666666667H298.6666666666667V256z" />
    <glyph glyph-name="build"
      unicode="&#x62;&#x75;&#x69;&#x6C;&#x64;"
      horiz-adv-x="512" d="M484.2666666666667 106.6666666666667L290.1333333333334 300.8C309.3333333333333 349.8666666666667 298.6666666666667 407.4666666666667 258.1333333333334 448C215.4666666666667 490.6666666666667 151.4666666666667 499.2 100.2666666666667 475.7333333333333L192 384L128 320L34.1333333333333 411.7333333333334C8.5333333333333 360.5333333333334 19.2 296.5333333333334 61.8666666666667 253.8666666666667C102.4 213.3333333333334 160 202.6666666666667 209.0666666666667 221.8666666666667L403.2 27.7333333333334C411.7333333333333 19.2 424.5333333333333 19.2 433.0666666666666 27.7333333333334L482.1333333333333 76.8000000000001C492.8 85.3333333333334 492.8 100.2666666666668 484.2666666666667 106.6666666666667z" />
    <glyph glyph-name="cached"
      unicode="&#x63;&#x61;&#x63;&#x68;&#x65;&#x64;"
      horiz-adv-x="512" d="M405.3333333333333 341.3333333333334L320 256H384C384 185.3866666666667 326.6133333333334 128 256 128C234.4533333333333 128 213.9733333333333 133.3333333333334 196.2666666666667 142.9333333333333L165.12 111.7866666666666C191.36 95.1466666666667 222.5066666666667 85.3333333333334 256 85.3333333333334C350.2933333333334 85.3333333333334 426.6666666666667 161.7066666666667 426.6666666666667 256H490.6666666666666L405.3333333333333 341.3333333333334zM128 256C128 326.6133333333334 185.3866666666667 384 256 384C277.5466666666666 384 298.0266666666667 378.6666666666667 315.7333333333334 369.0666666666667L346.88 400.2133333333334C320.64 416.8533333333334 289.4933333333334 426.6666666666667 256 426.6666666666667C161.7066666666667 426.6666666666667 85.3333333333333 350.2933333333334 85.3333333333333 256H21.3333333333333L106.6666666666667 170.6666666666667L192 256H128z" />
    <glyph glyph-name="camera_enhance"
      unicode="&#x63;&#x61;&#x6D;&#x65;&#x72;&#x61;&#x5F;&#x65;&#x6E;&#x68;&#x61;&#x6E;&#x63;&#x65;"
      horiz-adv-x="512" d="M192 448L152.96 405.3333333333334H85.3333333333333C61.8666666666667 405.3333333333334 42.6666666666667 386.1333333333334 42.6666666666667 362.6666666666667V106.6666666666667C42.6666666666667 83.2 61.8666666666667 64 85.3333333333333 64H426.6666666666667C450.1333333333334 64 469.3333333333333 83.2 469.3333333333333 106.6666666666667V362.6666666666667C469.3333333333333 386.1333333333334 450.1333333333334 405.3333333333334 426.6666666666667 405.3333333333334H359.04L320 448H192zM256 128C197.12 128 149.3333333333333 175.7866666666667 149.3333333333333 234.6666666666667S197.12 341.3333333333334 256 341.3333333333334S362.6666666666667 293.5466666666667 362.6666666666667 234.6666666666667S314.88 128 256 128zM256 149.3333333333334L282.6666666666667 208L341.3333333333333 234.6666666666667L282.6666666666667 261.3333333333334L256 320L229.3333333333333 261.3333333333334L170.6666666666667 234.6666666666667L229.3333333333333 208z" />
    <glyph glyph-name="card_giftcard"
      unicode="&#x63;&#x61;&#x72;&#x64;&#x5F;&#x67;&#x69;&#x66;&#x74;&#x63;&#x61;&#x72;&#x64;"
      horiz-adv-x="512" d="M426.6666666666667 384H380.16C382.5066666666667 390.6133333333334 384 397.8666666666667 384 405.3333333333334C384 440.7466666666667 355.4133333333333 469.3333333333333 320 469.3333333333333C297.6 469.3333333333333 278.1866666666666 457.8133333333333 266.6666666666667 440.5333333333333L256 426.24L245.3333333333333 440.7466666666667C233.8133333333334 457.8133333333333 214.4 469.3333333333333 192 469.3333333333333C156.5866666666667 469.3333333333333 128 440.7466666666667 128 405.3333333333334C128 397.8666666666667 129.4933333333334 390.6133333333334 131.84 384H85.3333333333333C61.6533333333333 384 42.88 365.0133333333333 42.88 341.3333333333334L42.6666666666667 106.6666666666667C42.6666666666667 82.9866666666667 61.6533333333333 64 85.3333333333333 64H426.6666666666667C450.3466666666667 64 469.3333333333333 82.9866666666667 469.3333333333333 106.6666666666667V341.3333333333334C469.3333333333333 365.0133333333333 450.3466666666667 384 426.6666666666667 384zM320 426.6666666666667C331.7333333333334 426.6666666666667 341.3333333333333 417.0666666666667 341.3333333333333 405.3333333333334S331.7333333333334 384 320 384S298.6666666666667 393.6 298.6666666666667 405.3333333333334S308.2666666666667 426.6666666666667 320 426.6666666666667zM192 426.6666666666667C203.7333333333334 426.6666666666667 213.3333333333333 417.0666666666667 213.3333333333333 405.3333333333334S203.7333333333334 384 192 384S170.6666666666667 393.6 170.6666666666667 405.3333333333334S180.2666666666667 426.6666666666667 192 426.6666666666667zM426.6666666666667 106.6666666666667H85.3333333333333V149.3333333333334H426.6666666666667V106.6666666666667zM426.6666666666667 213.3333333333334H85.3333333333333V341.3333333333334H193.7066666666667L149.3333333333333 280.9600000000001L183.8933333333333 256L234.6666666666667 325.12L256 354.1333333333334L277.3333333333333 325.12L328.1066666666667 256L362.6666666666667 280.9600000000001L318.2933333333333 341.3333333333334H426.6666666666667V213.3333333333334z" />
    <glyph glyph-name="card_membership"
      unicode="&#x63;&#x61;&#x72;&#x64;&#x5F;&#x6D;&#x65;&#x6D;&#x62;&#x65;&#x72;&#x73;&#x68;&#x69;&#x70;"
      horiz-adv-x="512" d="M426.6666666666667 469.3333333333333H85.3333333333333C61.6533333333333 469.3333333333333 42.6666666666667 450.3466666666667 42.6666666666667 426.6666666666667V192C42.6666666666667 168.3200000000001 61.6533333333333 149.3333333333334 85.3333333333333 149.3333333333334H170.6666666666667V42.6666666666667L256 85.3333333333334L341.3333333333333 42.6666666666667V149.3333333333334H426.6666666666667C450.3466666666667 149.3333333333334 469.3333333333333 168.3200000000001 469.3333333333333 192V426.6666666666667C469.3333333333333 450.3466666666667 450.3466666666667 469.3333333333333 426.6666666666667 469.3333333333333zM426.6666666666667 192H85.3333333333333V234.6666666666667H426.6666666666667V192zM426.6666666666667 298.6666666666667H85.3333333333333V426.6666666666667H426.6666666666667V298.6666666666667z" />
    <glyph glyph-name="card_travel"
      unicode="&#x63;&#x61;&#x72;&#x64;&#x5F;&#x74;&#x72;&#x61;&#x76;&#x65;&#x6C;"
      horiz-adv-x="512" d="M426.6666666666667 384H362.6666666666667V426.6666666666667C362.6666666666667 450.3466666666667 343.68 469.3333333333333 320 469.3333333333333H192C168.32 469.3333333333333 149.3333333333333 450.3466666666667 149.3333333333333 426.6666666666667V384H85.3333333333333C61.6533333333333 384 42.6666666666667 365.0133333333333 42.6666666666667 341.3333333333334V106.6666666666667C42.6666666666667 82.9866666666667 61.6533333333333 64 85.3333333333333 64H426.6666666666667C450.3466666666667 64 469.3333333333333 82.9866666666667 469.3333333333333 106.6666666666667V341.3333333333334C469.3333333333333 365.0133333333333 450.3466666666667 384 426.6666666666667 384zM192 426.6666666666667H320V384H192V426.6666666666667zM426.6666666666667 106.6666666666667H85.3333333333333V149.3333333333334H426.6666666666667V106.6666666666667zM426.6666666666667 213.3333333333334H85.3333333333333V341.3333333333334H149.3333333333333V298.6666666666667H192V341.3333333333334H320V298.6666666666667H362.6666666666667V341.3333333333334H426.6666666666667V213.3333333333334z" />
    <glyph glyph-name="change_history"
      unicode="&#x63;&#x68;&#x61;&#x6E;&#x67;&#x65;&#x5F;&#x68;&#x69;&#x73;&#x74;&#x6F;&#x72;&#x79;"
      horiz-adv-x="512" d="M256 346.24L392.32 128H119.68L256 346.24M256 426.6666666666667L42.6666666666667 85.3333333333334H469.3333333333333L256 426.6666666666667z" />
    <glyph glyph-name="check_circle"
      unicode="&#x63;&#x68;&#x65;&#x63;&#x6B;&#x5F;&#x63;&#x69;&#x72;&#x63;&#x6C;&#x65;"
      horiz-adv-x="512" d="M256 469.3333333333333C138.24 469.3333333333333 42.6666666666667 373.76 42.6666666666667 256S138.24 42.6666666666667 256 42.6666666666667S469.3333333333333 138.24 469.3333333333333 256S373.76 469.3333333333333 256 469.3333333333333zM213.3333333333333 149.3333333333334L106.6666666666667 256L136.7466666666667 286.0800000000001L213.3333333333333 209.7066666666667L375.2533333333334 371.6266666666667L405.3333333333333 341.3333333333334L213.3333333333333 149.3333333333334z" />
    <glyph glyph-name="chrome_reader_mode"
      unicode="&#x63;&#x68;&#x72;&#x6F;&#x6D;&#x65;&#x5F;&#x72;&#x65;&#x61;&#x64;&#x65;&#x72;&#x5F;&#x6D;&#x6F;&#x64;&#x65;"
      horiz-adv-x="512" d="M277.3333333333333 256H426.6666666666667V224H277.3333333333333zM277.3333333333333 309.3333333333334H426.6666666666667V277.3333333333334H277.3333333333333zM277.3333333333333 202.6666666666667H426.6666666666667V170.6666666666667H277.3333333333333zM448 426.6666666666667H64C40.5333333333333 426.6666666666667 21.3333333333333 407.4666666666667 21.3333333333333 384V106.6666666666667C21.3333333333333 83.2 40.5333333333333 64 64 64H448C471.4666666666667 64 490.6666666666666 83.2 490.6666666666666 106.6666666666667V384C490.6666666666666 407.4666666666667 471.4666666666667 426.6666666666667 448 426.6666666666667zM448 106.6666666666667H256V384H448V106.6666666666667z" />
    <glyph glyph-name="class"
      unicode="&#x63;&#x6C;&#x61;&#x73;&#x73;"
      horiz-adv-x="512" d="M384 469.3333333333333H128C104.5333333333333 469.3333333333333 85.3333333333333 450.1333333333334 85.3333333333333 426.6666666666667V85.3333333333334C85.3333333333333 61.8666666666667 104.5333333333333 42.6666666666667 128 42.6666666666667H384C407.4666666666667 42.6666666666667 426.6666666666667 61.8666666666667 426.6666666666667 85.3333333333334V426.6666666666667C426.6666666666667 450.1333333333334 407.4666666666667 469.3333333333333 384 469.3333333333333zM128 426.6666666666667H234.6666666666667V256L181.3333333333333 288L128 256V426.6666666666667z" />
    <glyph glyph-name="code"
      unicode="&#x63;&#x6F;&#x64;&#x65;"
      horiz-adv-x="512" d="M200.5333333333333 157.8666666666667L102.4 256L200.5333333333333 354.1333333333334L170.6666666666667 384L42.6666666666667 256L170.6666666666667 128L200.5333333333333 157.8666666666667zM311.4666666666667 157.8666666666667L409.6 256L311.4666666666667 354.1333333333334L341.3333333333333 384L469.3333333333333 256L341.3333333333333 128L311.4666666666667 157.8666666666667z" />
    <glyph glyph-name="compare_arrows"
      unicode="&#x63;&#x6F;&#x6D;&#x70;&#x61;&#x72;&#x65;&#x5F;&#x61;&#x72;&#x72;&#x6F;&#x77;&#x73;"
      horiz-adv-x="512" d="M192.2133333333333 213.3333333333334H42.6666666666667V170.6666666666667H192.2133333333333V106.6666666666667L277.3333333333333 192L192.2133333333333 277.3333333333334V213.3333333333334zM319.7866666666667 234.6666666666667V298.6666666666667H469.3333333333333V341.3333333333334H319.7866666666667V405.3333333333334L234.6666666666667 320L319.7866666666667 234.6666666666667z" />
    <glyph glyph-name="copyright"
      unicode="&#x63;&#x6F;&#x70;&#x79;&#x72;&#x69;&#x67;&#x68;&#x74;"
      horiz-adv-x="512" d="M215.04 280.3200000000001C216.1066666666667 287.36 218.4533333333333 293.5466666666667 221.44 298.88S228.6933333333334 308.6933333333334 234.0266666666667 312.1066666666667C239.1466666666667 315.3066666666667 245.5466666666667 316.8 253.44 317.0133333333333C258.3466666666667 316.8 262.8266666666667 315.9466666666667 266.88 314.24C271.1466666666667 312.32 274.9866666666667 309.76 277.9733333333334 306.56S283.3066666666667 299.52 285.2266666666667 295.2533333333334S288 286.2933333333334 288.2133333333334 281.6H326.4C325.9733333333334 291.6266666666667 324.0533333333334 300.8 320.4266666666667 309.12S311.8933333333333 324.6933333333334 305.4933333333334 330.6666666666667S291.4133333333334 341.3333333333333 282.4533333333334 344.7466666666667S263.68 349.6533333333333 252.8 349.6533333333333C238.9333333333334 349.6533333333333 226.7733333333334 347.3066666666666 216.5333333333334 342.4S197.76 331.0933333333334 190.9333333333334 322.7733333333333S178.9866666666667 304.8533333333334 175.7866666666667 293.76S170.6666666666667 271.1466666666667 170.6666666666667 258.7733333333334V253.0133333333334C170.6666666666667 240.6400000000001 172.3733333333333 229.1200000000001 175.5733333333333 218.0266666666667S183.8933333333334 197.3333333333334 190.72 189.2266666666667S206.0800000000001 174.5066666666667 216.32 169.8133333333334S238.7200000000001 162.5600000000001 252.5866666666667 162.5600000000001C262.6133333333334 162.5600000000001 272 164.2666666666667 280.7466666666667 167.4666666666667S297.1733333333333 175.1466666666667 303.7866666666667 180.9066666666668S315.7333333333334 193.2800000000001 319.5733333333333 200.96S325.76 216.7466666666667 325.9733333333334 225.4933333333334H287.7866666666667C287.5733333333334 221.0133333333334 286.5066666666667 216.96 284.5866666666667 213.1200000000001S280.1066666666667 206.0800000000001 276.9066666666667 203.3066666666667S270.0800000000001 198.4 265.8133333333334 196.9066666666667C261.7600000000001 195.4133333333334 257.4933333333334 194.9866666666667 253.0133333333334 194.7733333333334C245.3333333333334 194.9866666666667 238.9333333333334 196.48 234.0266666666667 199.6800000000001C228.6933333333334 203.0933333333334 224.4266666666667 207.5733333333334 221.4400000000001 212.9066666666667S216.1066666666667 224.6400000000001 215.04 231.6800000000001S213.3333333333334 245.9733333333334 213.3333333333334 253.0133333333334V258.7733333333334C213.3333333333334 266.24 213.9733333333334 273.2800000000001 215.04 280.3200000000001zM256 469.3333333333333C138.24 469.3333333333333 42.6666666666667 373.76 42.6666666666667 256S138.24 42.6666666666667 256 42.6666666666667S469.3333333333333 138.24 469.3333333333333 256S373.76 469.3333333333333 256 469.3333333333333zM256 85.3333333333334C161.92 85.3333333333334 85.3333333333333 161.92 85.3333333333333 256S161.92 426.6666666666667 256 426.6666666666667S426.6666666666667 350.0800000000001 426.6666666666667 256S350.08 85.3333333333334 256 85.3333333333334z" />
    <glyph glyph-name="credit_card"
      unicode="&#x63;&#x72;&#x65;&#x64;&#x69;&#x74;&#x5F;&#x63;&#x61;&#x72;&#x64;"
      horiz-adv-x="512" d="M426.6666666666667 426.6666666666667H85.3333333333333C61.6533333333333 426.6666666666667 42.88 407.68 42.88 384L42.6666666666667 128C42.6666666666667 104.3200000000001 61.6533333333333 85.3333333333334 85.3333333333333 85.3333333333334H426.6666666666667C450.3466666666667 85.3333333333334 469.3333333333333 104.3200000000001 469.3333333333333 128V384C469.3333333333333 407.68 450.3466666666667 426.6666666666667 426.6666666666667 426.6666666666667zM426.6666666666667 128H85.3333333333333V256H426.6666666666667V128zM426.6666666666667 341.3333333333334H85.3333333333333V384H426.6666666666667V341.3333333333334z" />
    <glyph glyph-name="dashboard"
      unicode="&#x64;&#x61;&#x73;&#x68;&#x62;&#x6F;&#x61;&#x72;&#x64;"
      horiz-adv-x="512" d="M64 234.6666666666667H234.6666666666667V448H64V234.6666666666667zM64 64H234.6666666666667V192H64V64zM277.3333333333333 64H448V277.3333333333334H277.3333333333333V64zM277.3333333333333 448V320H448V448H277.3333333333333z" />
    <glyph glyph-name="date_range"
      unicode="&#x64;&#x61;&#x74;&#x65;&#x5F;&#x72;&#x61;&#x6E;&#x67;&#x65;"
      horiz-adv-x="512" d="M192 277.3333333333334H149.3333333333333V234.6666666666667H192V277.3333333333334zM277.3333333333333 277.3333333333334H234.6666666666667V234.6666666666667H277.3333333333333V277.3333333333334zM362.6666666666667 277.3333333333334H320V234.6666666666667H362.6666666666667V277.3333333333334zM405.3333333333333 426.6666666666667H384V469.3333333333333H341.3333333333333V426.6666666666667H170.6666666666667V469.3333333333333H128V426.6666666666667H106.6666666666667C82.9866666666667 426.6666666666667 64.2133333333333 407.4666666666667 64.2133333333333 384L64 85.3333333333334C64 61.8666666666667 82.9866666666667 42.6666666666667 106.6666666666667 42.6666666666667H405.3333333333333C428.8 42.6666666666667 448 61.8666666666667 448 85.3333333333334V384C448 407.4666666666667 428.8 426.6666666666667 405.3333333333333 426.6666666666667zM405.3333333333333 85.3333333333334H106.6666666666667V320H405.3333333333333V85.3333333333334z" />
    <glyph glyph-name="delete"
      unicode="&#x64;&#x65;&#x6C;&#x65;&#x74;&#x65;"
      horiz-adv-x="512" d="M128 106.6666666666667C128 83.2 147.2 64 170.6666666666667 64H341.3333333333333C364.8 64 384 83.2 384 106.6666666666667V362.6666666666667H128V106.6666666666667zM405.3333333333333 426.6666666666667H330.6666666666667L309.3333333333333 448H202.6666666666667L181.3333333333333 426.6666666666667H106.6666666666667V384H405.3333333333333V426.6666666666667z" />
    <glyph glyph-name="delete_forever"
      unicode="&#x64;&#x65;&#x6C;&#x65;&#x74;&#x65;&#x5F;&#x66;&#x6F;&#x72;&#x65;&#x76;&#x65;&#x72;"
      horiz-adv-x="512" d="M128 106.6666666666667C128 83.2 147.2 64 170.6666666666667 64H341.3333333333333C364.8 64 384 83.2 384 106.6666666666667V362.6666666666667H128V106.6666666666667zM180.48 258.5600000000001L210.56 288.6400000000001L256 243.4133333333334L301.2266666666667 288.6400000000001L331.3066666666667 258.5600000000001L286.08 213.3333333333334L331.3066666666667 168.1066666666667L301.2266666666667 138.0266666666667L256 183.2533333333333L210.7733333333333 138.0266666666667L180.6933333333333 168.1066666666667L225.92 213.3333333333334L180.48 258.5600000000001zM330.6666666666667 426.6666666666667L309.3333333333333 448H202.6666666666667L181.3333333333333 426.6666666666667H106.6666666666667V384H405.3333333333333V426.6666666666667z" />
    <glyph glyph-name="description"
      unicode="&#x64;&#x65;&#x73;&#x63;&#x72;&#x69;&#x70;&#x74;&#x69;&#x6F;&#x6E;"
      horiz-adv-x="512" d="M298.6666666666667 469.3333333333333H128C104.5333333333333 469.3333333333333 85.5466666666667 450.1333333333334 85.5466666666667 426.6666666666667L85.3333333333333 85.3333333333334C85.3333333333333 61.8666666666667 104.32 42.6666666666667 127.7866666666667 42.6666666666667H384C407.4666666666667 42.6666666666667 426.6666666666667 61.8666666666667 426.6666666666667 85.3333333333334V341.3333333333334L298.6666666666667 469.3333333333333zM341.3333333333333 128H170.6666666666667V170.6666666666667H341.3333333333333V128zM341.3333333333333 213.3333333333334H170.6666666666667V256H341.3333333333333V213.3333333333334zM277.3333333333333 320V437.3333333333334L394.6666666666667 320H277.3333333333333z" />
    <glyph glyph-name="dns"
      unicode="&#x64;&#x6E;&#x73;"
      horiz-adv-x="512" d="M426.6666666666667 234.6666666666667H85.3333333333333C73.6 234.6666666666667 64 225.0666666666667 64 213.3333333333334V85.3333333333334C64 73.6 73.6 64 85.3333333333333 64H426.6666666666667C438.4 64 448 73.6 448 85.3333333333334V213.3333333333334C448 225.0666666666667 438.4 234.6666666666667 426.6666666666667 234.6666666666667zM149.3333333333333 106.6666666666667C125.8666666666667 106.6666666666667 106.6666666666667 125.8666666666667 106.6666666666667 149.3333333333334S125.8666666666667 192 149.3333333333333 192S192 172.8 192 149.3333333333334S172.8 106.6666666666667 149.3333333333333 106.6666666666667zM426.6666666666667 448H85.3333333333333C73.6 448 64 438.4 64 426.6666666666667V298.6666666666667C64 286.9333333333334 73.6 277.3333333333334 85.3333333333333 277.3333333333334H426.6666666666667C438.4 277.3333333333334 448 286.9333333333334 448 298.6666666666667V426.6666666666667C448 438.4 438.4 448 426.6666666666667 448zM149.3333333333333 320C125.8666666666667 320 106.6666666666667 339.2000000000001 106.6666666666667 362.6666666666667S125.8666666666667 405.3333333333334 149.3333333333333 405.3333333333334S192 386.1333333333334 192 362.6666666666667S172.8 320 149.3333333333333 320z" />
    <glyph glyph-name="done"
      unicode="&#x64;&#x6F;&#x6E;&#x65;"
      horiz-adv-x="512" d="M192 166.4L102.4 256L72.5333333333333 226.1333333333334L192 106.6666666666667L448 362.6666666666667L418.1333333333334 392.5333333333334L192 166.4z" />
    <glyph glyph-name="done_all"
      unicode="&#x64;&#x6F;&#x6E;&#x65;&#x5F;&#x61;&#x6C;&#x6C;"
      horiz-adv-x="512" d="M384 362.6666666666667L353.92 392.7466666666667L218.6666666666667 257.4933333333334L248.7466666666667 227.4133333333334L384 362.6666666666667zM474.4533333333334 392.7466666666667L248.7466666666667 167.04L159.5733333333333 256L129.4933333333334 225.92L248.7466666666667 106.6666666666667L504.7466666666667 362.6666666666667L474.4533333333334 392.7466666666667zM8.7466666666667 225.92L128 106.6666666666667L158.08 136.7466666666667L39.04 256L8.7466666666667 225.92z" />
    <glyph glyph-name="donut_large"
      unicode="&#x64;&#x6F;&#x6E;&#x75;&#x74;&#x5F;&#x6C;&#x61;&#x72;&#x67;&#x65;"
      horiz-adv-x="512" d="M234.6666666666667 403.6266666666667V469.3333333333333C128 458.6666666666667 42.6666666666667 366.7200000000001 42.6666666666667 256S128 53.3333333333334 234.6666666666667 42.6666666666667V108.3733333333333C170.6666666666667 118.6133333333334 106.6666666666667 180.9066666666667 106.6666666666667 256S170.6666666666667 393.3866666666667 234.6666666666667 403.6266666666667zM404.6933333333333 277.3333333333334H469.3333333333333C459.3066666666667 384 384 459.3066666666667 277.3333333333333 469.3333333333333V403.6266666666667C341.3333333333333 394.4533333333334 395.52 341.3333333333334 404.6933333333333 277.3333333333334zM277.3333333333333 108.3733333333333V42.6666666666667C384 52.6933333333333 459.3066666666667 128 469.3333333333333 234.6666666666667H404.6933333333333C395.52 170.6666666666667 341.3333333333333 117.5466666666666 277.3333333333333 108.3733333333333z" />
    <glyph glyph-name="donut_small"
      unicode="&#x64;&#x6F;&#x6E;&#x75;&#x74;&#x5F;&#x73;&#x6D;&#x61;&#x6C;&#x6C;"
      horiz-adv-x="512" d="M234.6666666666667 316.5866666666667V469.3333333333333C128 458.6666666666667 42.6666666666667 367.1466666666667 42.6666666666667 256S128 53.3333333333334 234.6666666666667 42.6666666666667V195.4133333333334C213.3333333333333 204.16 192 227.8400000000001 192 256S213.3333333333333 307.8400000000001 234.6666666666667 316.5866666666667zM317.0133333333333 277.3333333333334H469.3333333333333C459.0933333333333 378.6666666666667 384 459.3066666666667 277.3333333333333 469.3333333333333V316.5866666666667C298.6666666666667 310.1866666666667 309.76 295.68 317.0133333333333 277.3333333333334zM277.3333333333333 195.4133333333334V42.6666666666667C384 52.6933333333333 459.0933333333333 133.3333333333334 469.3333333333333 234.6666666666667H317.0133333333333C309.76 216.3200000000001 298.6666666666667 201.8133333333334 277.3333333333333 195.4133333333334z" />
    <glyph glyph-name="eject"
      unicode="&#x65;&#x6A;&#x65;&#x63;&#x74;"
      horiz-adv-x="512" d="M106.6666666666667 149.3333333333334H405.3333333333333V106.6666666666667H106.6666666666667zM256 405.3333333333334L113.7066666666667 192H398.2933333333334z" />
    <glyph glyph-name="euro_symbol"
      unicode="&#x65;&#x75;&#x72;&#x6F;&#x5F;&#x73;&#x79;&#x6D;&#x62;&#x6F;&#x6C;"
      horiz-adv-x="512" d="M320 117.3333333333334C266.4533333333333 117.3333333333334 220.16 147.6266666666667 197.12 192H320V234.6666666666667H183.04C181.9733333333333 241.7066666666667 181.3333333333333 248.7466666666667 181.3333333333333 256S181.9733333333333 270.2933333333334 183.04 277.3333333333334H320V320H197.12C220.16 364.3733333333334 266.6666666666667 394.6666666666667 320 394.6666666666667C354.3466666666667 394.6666666666667 385.92 382.0800000000001 410.24 361.1733333333334L448 398.9333333333334C414.08 429.44 369.0666666666667 448 320 448C236.3733333333334 448 165.5466666666667 394.4533333333334 139.0933333333333 320H64V277.3333333333334H129.28C128.4266666666667 270.2933333333334 128 263.2533333333334 128 256C128 248.7466666666667 128.4266666666667 241.7066666666667 129.28 234.6666666666667H64V192H139.0933333333333C165.5466666666667 117.5466666666666 236.3733333333333 64 320 64C369.28 64 414.08 82.5600000000001 448 113.0666666666667L410.0266666666667 150.8266666666667C385.92 129.92 354.56 117.3333333333334 320 117.3333333333334z" />
    <glyph glyph-name="event"
      unicode="&#x65;&#x76;&#x65;&#x6E;&#x74;"
      horiz-adv-x="512" d="M362.6666666666667 256H256V149.3333333333334H362.6666666666667V256zM341.3333333333333 490.6666666666667V448H170.6666666666667V490.6666666666667H128V448H106.6666666666667C82.9866666666667 448 64.2133333333333 428.8 64.2133333333333 405.3333333333334L64 106.6666666666667C64 83.2 82.9866666666667 64 106.6666666666667 64H405.3333333333333C428.8 64 448 83.2 448 106.6666666666667V405.3333333333334C448 428.8 428.8 448 405.3333333333333 448H384V490.6666666666667H341.3333333333333zM405.3333333333333 106.6666666666667H106.6666666666667V341.3333333333334H405.3333333333333V106.6666666666667z" />
    <glyph glyph-name="event_seat"
      unicode="&#x65;&#x76;&#x65;&#x6E;&#x74;&#x5F;&#x73;&#x65;&#x61;&#x74;"
      horiz-adv-x="512" d="M85.3333333333333 128V64H149.3333333333333V128H362.6666666666667V64H426.6666666666667V192H85.3333333333333zM405.3333333333333 298.6666666666667H469.3333333333333V234.6666666666667H405.3333333333333zM42.6666666666667 298.6666666666667H106.6666666666667V234.6666666666667H42.6666666666667zM362.6666666666667 234.6666666666667H149.3333333333333V405.3333333333334C149.3333333333333 428.8 168.5333333333333 448 192 448H320C343.4666666666667 448 362.6666666666667 428.8 362.6666666666667 405.3333333333334V234.6666666666667z" />
    <glyph glyph-name="exit_to_app"
      unicode="&#x65;&#x78;&#x69;&#x74;&#x5F;&#x74;&#x6F;&#x5F;&#x61;&#x70;&#x70;"
      horiz-adv-x="512" d="M215.2533333333333 179.4133333333334L245.3333333333333 149.3333333333334L352 256L245.3333333333333 362.6666666666667L215.2533333333333 332.5866666666667L270.2933333333333 277.3333333333334H64V234.6666666666667H270.2933333333333L215.2533333333333 179.4133333333334zM405.3333333333333 448H106.6666666666667C82.9866666666667 448 64 428.8 64 405.3333333333334V320H106.6666666666667V405.3333333333334H405.3333333333333V106.6666666666667H106.6666666666667V192H64V106.6666666666667C64 83.2 82.9866666666667 64 106.6666666666667 64H405.3333333333333C428.8 64 448 83.2 448 106.6666666666667V405.3333333333334C448 428.8 428.8 448 405.3333333333333 448z" />
    <glyph glyph-name="explore"
      unicode="&#x65;&#x78;&#x70;&#x6C;&#x6F;&#x72;&#x65;"
      horiz-adv-x="512" d="M256 279.4666666666667C242.9866666666667 279.4666666666667 232.5333333333334 269.0133333333333 232.5333333333334 256S242.9866666666667 232.5333333333334 256 232.5333333333334C269.0133333333333 232.5333333333334 279.4666666666667 242.9866666666667 279.4666666666667 256S269.0133333333333 279.4666666666667 256 279.4666666666667zM256 469.3333333333333C138.24 469.3333333333333 42.6666666666667 373.76 42.6666666666667 256S138.24 42.6666666666667 256 42.6666666666667S469.3333333333333 138.24 469.3333333333333 256S373.76 469.3333333333333 256 469.3333333333333zM302.72 209.28L128 128L209.28 302.7200000000001L384 384L302.72 209.28z" />
    <glyph glyph-name="extension"
      unicode="&#x65;&#x78;&#x74;&#x65;&#x6E;&#x73;&#x69;&#x6F;&#x6E;"
      horiz-adv-x="512" d="M437.3333333333333 277.3333333333334H405.3333333333333V362.6666666666667C405.3333333333333 386.1333333333334 386.1333333333334 405.3333333333334 362.6666666666667 405.3333333333334H277.3333333333333V437.3333333333334C277.3333333333333 466.7733333333333 253.44 490.6666666666667 224 490.6666666666667S170.6666666666667 466.7733333333333 170.6666666666667 437.3333333333334V405.3333333333334H85.3333333333333C61.8666666666667 405.3333333333334 42.88 386.1333333333334 42.88 362.6666666666667V281.6H74.6666666666667C106.4533333333333 281.6 132.2666666666667 255.7866666666667 132.2666666666667 224S106.4533333333333 166.4 74.6666666666667 166.4H42.6666666666667V85.3333333333334C42.6666666666667 61.8666666666667 61.8666666666667 42.6666666666667 85.3333333333333 42.6666666666667H166.4V74.6666666666667C166.4 106.4533333333333 192.2133333333333 132.2666666666667 224 132.2666666666667C255.7866666666667 132.2666666666667 281.6 106.4533333333333 281.6 74.6666666666667V42.6666666666667H362.6666666666667C386.1333333333334 42.6666666666667 405.3333333333333 61.8666666666667 405.3333333333333 85.3333333333334V170.6666666666667H437.3333333333333C466.7733333333333 170.6666666666667 490.6666666666666 194.5600000000001 490.6666666666666 224S466.7733333333333 277.3333333333334 437.3333333333333 277.3333333333334z" />
    <glyph glyph-name="face"
      unicode="&#x66;&#x61;&#x63;&#x65;"
      horiz-adv-x="512" d="M192 261.3333333333334C177.28 261.3333333333334 165.3333333333333 249.3866666666667 165.3333333333333 234.6666666666667S177.28 208 192 208S218.6666666666667 219.9466666666667 218.6666666666667 234.6666666666667S206.72 261.3333333333334 192 261.3333333333334zM320 261.3333333333334C305.28 261.3333333333334 293.3333333333333 249.3866666666667 293.3333333333333 234.6666666666667S305.28 208 320 208S346.6666666666667 219.9466666666667 346.6666666666667 234.6666666666667S334.72 261.3333333333334 320 261.3333333333334zM256 469.3333333333333C138.24 469.3333333333333 42.6666666666667 373.76 42.6666666666667 256S138.24 42.6666666666667 256 42.6666666666667S469.3333333333333 138.24 469.3333333333333 256S373.76 469.3333333333333 256 469.3333333333333zM256 85.3333333333334C161.92 85.3333333333334 85.3333333333333 161.92 85.3333333333333 256C85.3333333333333 262.1866666666667 85.76 268.3733333333334 86.4 274.3466666666667C136.7466666666667 296.7466666666667 176.64 337.92 197.5466666666667 388.9066666666667C236.16 334.2933333333334 299.7333333333334 298.6666666666667 371.6266666666667 298.6666666666667C388.2666666666667 298.6666666666667 404.2666666666667 300.5866666666667 419.6266666666667 304.2133333333334C424.1066666666667 289.0666666666667 426.6666666666667 272.8533333333334 426.6666666666667 256C426.6666666666667 161.92 350.08 85.3333333333334 256 85.3333333333334z" />
    <glyph glyph-name="favorite"
      unicode="&#x66;&#x61;&#x76;&#x6F;&#x72;&#x69;&#x74;&#x65;"
      horiz-adv-x="512" d="M256 56.5333333333333L225.0666666666667 84.6933333333333C115.2 184.3200000000001 42.6666666666667 250.0266666666667 42.6666666666667 330.6666666666667C42.6666666666667 396.3733333333334 94.2933333333333 448 160 448C197.12 448 232.7466666666667 430.7200000000001 256 403.4133333333334C279.2533333333334 430.7200000000001 314.88 448 352 448C417.7066666666666 448 469.3333333333333 396.3733333333334 469.3333333333333 330.6666666666667C469.3333333333333 250.0266666666667 396.8 184.3200000000001 286.9333333333333 84.48L256 56.5333333333333z" />
    <glyph glyph-name="favorite_border"
      unicode="&#x66;&#x61;&#x76;&#x6F;&#x72;&#x69;&#x74;&#x65;&#x5F;&#x62;&#x6F;&#x72;&#x64;&#x65;&#x72;"
      horiz-adv-x="512" d="M352 448C314.88 448 279.2533333333334 430.7200000000001 256 403.4133333333334C232.7466666666667 430.7200000000001 197.12 448 160 448C94.2933333333333 448 42.6666666666667 396.3733333333334 42.6666666666667 330.6666666666667C42.6666666666667 250.0266666666667 115.2 184.3200000000001 225.0666666666667 84.48L256 56.5333333333333L286.9333333333333 84.6933333333333C396.8 184.3200000000001 469.3333333333333 250.0266666666667 469.3333333333333 330.6666666666667C469.3333333333333 396.3733333333334 417.7066666666666 448 352 448zM258.1333333333334 116.2666666666667L256 114.1333333333333L253.8666666666667 116.2666666666667C152.32 208.2133333333334 85.3333333333333 269.0133333333333 85.3333333333333 330.6666666666667C85.3333333333333 373.3333333333334 117.3333333333333 405.3333333333334 160 405.3333333333334C192.8533333333333 405.3333333333334 224.8533333333333 384.2133333333334 236.16 354.9866666666667H276.0533333333334C287.1466666666667 384.2133333333334 319.1466666666667 405.3333333333334 352 405.3333333333334C394.6666666666667 405.3333333333334 426.6666666666667 373.3333333333334 426.6666666666667 330.6666666666667C426.6666666666667 269.0133333333333 359.68 208.2133333333334 258.1333333333334 116.2666666666667z" />
    <glyph glyph-name="feedback"
      unicode="&#x66;&#x65;&#x65;&#x64;&#x62;&#x61;&#x63;&#x6B;"
      horiz-adv-x="512" d="M426.6666666666667 469.3333333333333H85.3333333333333C61.8666666666667 469.3333333333333 42.88 450.1333333333334 42.88 426.6666666666667L42.6666666666667 42.6666666666667L128 128H426.6666666666667C450.1333333333334 128 469.3333333333333 147.2 469.3333333333333 170.6666666666667V426.6666666666667C469.3333333333333 450.1333333333334 450.1333333333334 469.3333333333333 426.6666666666667 469.3333333333333zM277.3333333333333 213.3333333333334H234.6666666666667V256H277.3333333333333V213.3333333333334zM277.3333333333333 298.6666666666667H234.6666666666667V384H277.3333333333333V298.6666666666667z" />
    <glyph glyph-name="find_in_page"
      unicode="&#x66;&#x69;&#x6E;&#x64;&#x5F;&#x69;&#x6E;&#x5F;&#x70;&#x61;&#x67;&#x65;"
      horiz-adv-x="512" d="M426.6666666666667 94.08V341.3333333333334L298.6666666666667 469.3333333333333H128C104.5333333333333 469.3333333333333 85.5466666666667 450.1333333333334 85.5466666666667 426.6666666666667L85.3333333333333 85.3333333333334C85.3333333333333 61.8666666666667 104.32 42.6666666666667 127.7866666666667 42.6666666666667H384C393.6 42.6666666666667 402.1333333333334 45.8666666666667 409.3866666666667 51.2L314.88 145.7066666666667C297.8133333333334 134.6133333333334 277.76 128 256 128C197.12 128 149.3333333333334 175.7866666666667 149.3333333333334 234.6666666666667S197.12 341.3333333333334 256 341.3333333333334S362.6666666666667 293.5466666666667 362.6666666666667 234.6666666666667C362.6666666666667 212.9066666666667 356.0533333333334 192.8533333333334 344.9600000000001 176L426.6666666666667 94.08zM192 234.6666666666667C192 199.2533333333333 220.5866666666667 170.6666666666667 256 170.6666666666667S320 199.2533333333333 320 234.6666666666667S291.4133333333333 298.6666666666667 256 298.6666666666667S192 270.0800000000001 192 234.6666666666667z" />
    <glyph glyph-name="find_replace"
      unicode="&#x66;&#x69;&#x6E;&#x64;&#x5F;&#x72;&#x65;&#x70;&#x6C;&#x61;&#x63;&#x65;"
      horiz-adv-x="512" d="M234.6666666666667 384C264.1066666666667 384 290.7733333333333 372.0533333333334 310.1866666666666 352.8533333333334L256 298.6666666666667H384V426.6666666666667L340.2666666666667 382.9333333333334C313.1733333333333 410.0266666666667 275.84 426.6666666666667 234.6666666666667 426.6666666666667C159.36 426.6666666666667 97.4933333333333 370.9866666666667 87.04 298.6666666666667H130.1333333333333C139.9466666666667 347.3066666666667 183.04 384 234.6666666666667 384zM354.9866666666667 189.0133333333333C369.0666666666667 208.2133333333334 378.88 231.04 382.2933333333334 256H339.2C329.3866666666667 207.36 286.2933333333333 170.6666666666667 234.6666666666667 170.6666666666667C205.2266666666667 170.6666666666667 178.56 182.6133333333334 159.1466666666667 201.8133333333334L213.3333333333333 256H85.3333333333333V128L129.0666666666667 171.7333333333334C156.16 144.6400000000001 193.4933333333334 128 234.6666666666667 128C267.7333333333334 128 298.24 138.8800000000001 322.9866666666667 157.0133333333333L426.6666666666667 53.5466666666667L458.4533333333333 85.3333333333334L354.9866666666667 189.0133333333333z" />
    <glyph glyph-name="fingerprint"
      unicode="&#x66;&#x69;&#x6E;&#x67;&#x65;&#x72;&#x70;&#x72;&#x69;&#x6E;&#x74;"
      horiz-adv-x="512" d="M379.9466666666666 416.64C378.24 416.64 376.5333333333333 417.0666666666667 375.04 417.92C334.08 439.04 298.6666666666667 448 256.2133333333333 448C213.9733333333333 448 173.8666666666667 437.9733333333334 137.3866666666667 417.92C132.2666666666667 415.1466666666667 125.8666666666667 417.0666666666667 122.88 422.1866666666667C120.1066666666667 427.3066666666667 122.0266666666667 433.92 127.1466666666667 436.6933333333334C166.8266666666667 458.24 210.3466666666666 469.3333333333333 256.2133333333333 469.3333333333333C301.6533333333333 469.3333333333333 341.3333333333333 459.3066666666667 384.8533333333333 436.9066666666667C390.1866666666666 434.1333333333334 392.1066666666667 427.7333333333334 389.3333333333333 422.6133333333334C387.4133333333333 418.7733333333333 383.7866666666667 416.64 379.9466666666666 416.64zM74.6666666666667 304.64C72.5333333333333 304.64 70.4 305.28 68.48 306.56C63.5733333333333 309.9733333333334 62.5066666666667 316.5866666666667 65.92 321.4933333333334C87.04 351.36 113.92 374.8266666666667 145.92 391.2533333333334C212.9066666666667 425.8133333333334 298.6666666666667 426.0266666666667 365.8666666666666 391.4666666666667C397.8666666666666 375.04 424.7466666666666 351.7866666666667 445.8666666666666 322.1333333333334C449.28 317.44 448.2133333333333 310.6133333333334 443.3066666666666 307.2000000000001C438.3999999999999 303.7866666666667 431.7866666666667 304.8533333333334 428.3733333333333 309.76C409.1733333333333 336.64 384.8533333333333 357.76 356.0533333333333 372.48C294.8266666666666 403.84 216.5333333333333 403.84 155.5199999999999 372.2666666666667C126.5066666666666 357.3333333333333 102.1866666666666 336 82.9866666666666 309.12C81.28 306.1333333333334 78.0799999999999 304.64 74.6666666666666 304.64zM208 47.1466666666667C205.2266666666666 47.1466666666667 202.4533333333333 48.2133333333334 200.5333333333333 50.3466666666667C181.9733333333334 68.9066666666667 171.9466666666667 80.8533333333334 157.6533333333333 106.6666666666667C142.9333333333333 132.9066666666667 135.2533333333333 164.9066666666667 135.2533333333333 199.2533333333333C135.2533333333333 262.6133333333334 189.44 314.24 256 314.24S376.7466666666667 262.6133333333334 376.7466666666667 199.2533333333333C376.7466666666667 193.28 372.0533333333334 188.5866666666667 366.08 188.5866666666667S355.4133333333333 193.28 355.4133333333333 199.2533333333333C355.4133333333333 250.88 310.8266666666667 292.9066666666667 256 292.9066666666667C201.1733333333333 292.9066666666667 156.5866666666667 250.88 156.5866666666667 199.2533333333333C156.5866666666667 168.5333333333333 163.4133333333333 140.16 176.4266666666667 117.12C190.08 92.5866666666667 199.4666666666667 82.1333333333333 215.8933333333333 65.4933333333333C219.9466666666666 61.2266666666667 219.9466666666666 54.6133333333333 215.8933333333333 50.3466666666667C213.5466666666667 48.2133333333333 210.7733333333333 47.1466666666667 208 47.1466666666667zM360.9600000000001 86.6133333333334C335.5733333333334 86.6133333333334 313.1733333333334 93.0133333333334 294.8266666666667 105.6000000000001C263.04 127.1466666666668 244.0533333333334 162.1333333333334 244.0533333333334 199.2533333333335C244.0533333333334 205.2266666666668 248.7466666666667 209.9200000000001 254.7200000000001 209.9200000000001S265.3866666666667 205.2266666666668 265.3866666666667 199.2533333333335C265.3866666666667 169.1733333333334 280.7466666666667 140.8000000000001 306.7733333333333 123.3066666666668C321.92 113.0666666666668 339.6266666666667 108.1600000000001 360.9600000000001 108.1600000000001C366.08 108.1600000000001 374.6133333333334 108.8000000000001 383.1466666666667 110.2933333333335C388.9066666666667 111.3600000000001 394.4533333333334 107.5200000000002 395.52 101.5466666666668C396.5866666666667 95.7866666666668 392.7466666666667 90.2400000000001 386.7733333333333 89.1733333333335C374.6133333333333 86.8266666666668 363.9466666666666 86.6133333333335 360.9599999999999 86.6133333333335zM318.08 42.6666666666667C317.2266666666667 42.6666666666667 316.16 42.8800000000001 315.3066666666666 43.0933333333334C281.3866666666667 52.48 259.2 65.0666666666667 235.9466666666667 87.8933333333334C206.08 117.5466666666668 189.6533333333333 157.0133333333333 189.6533333333333 199.2533333333333C189.6533333333333 233.8133333333334 219.0933333333333 261.9733333333334 255.36 261.9733333333334C291.6266666666666 261.9733333333334 321.0666666666666 233.8133333333334 321.0666666666666 199.2533333333333C321.0666666666666 176.4266666666667 340.9066666666667 157.8666666666667 365.44 157.8666666666667S409.8133333333334 176.4266666666666 409.8133333333334 199.2533333333333C409.8133333333334 279.68 340.48 344.96 255.1466666666667 344.96C194.56 344.96 139.0933333333333 311.2533333333334 114.1333333333334 258.9866666666666C105.8133333333334 241.7066666666666 101.5466666666667 221.44 101.5466666666667 199.2533333333333C101.5466666666667 182.6133333333333 103.04 156.3733333333333 115.84 122.24C117.9733333333333 116.6933333333333 115.2 110.5066666666666 109.6533333333333 108.5866666666666C104.1066666666667 106.4533333333333 97.92 109.4399999999999 96 114.7733333333333C85.5466666666667 142.7199999999999 80.4266666666667 170.4533333333333 80.4266666666667 199.2533333333333C80.4266666666667 224.8533333333333 85.3333333333333 248.1066666666666 94.9333333333334 268.3733333333333C123.3066666666667 327.8933333333333 186.24 366.5066666666666 255.1466666666667 366.5066666666666C352.2133333333334 366.5066666666666 431.1466666666667 291.6266666666666 431.1466666666667 199.4666666666666C431.1466666666667 164.9066666666667 401.7066666666667 136.7466666666666 365.4400000000001 136.7466666666666S299.7333333333334 164.9066666666667 299.7333333333334 199.4666666666666C299.7333333333334 222.2933333333333 279.8933333333334 240.8533333333333 255.3600000000001 240.8533333333333S210.9866666666667 222.2933333333333 210.9866666666667 199.4666666666666C210.9866666666667 162.9866666666666 225.0666666666667 128.8533333333333 250.88 103.2533333333333C271.1466666666667 83.1999999999999 290.56 72.1066666666666 320.64 63.7866666666666C326.4 62.2933333333332 329.6 56.3199999999999 328.1066666666667 50.7733333333333C327.04 45.8666666666666 322.56 42.6666666666666 318.08 42.6666666666666z" />
    <glyph glyph-name="flight_land"
      unicode="&#x66;&#x6C;&#x69;&#x67;&#x68;&#x74;&#x5F;&#x6C;&#x61;&#x6E;&#x64;"
      horiz-adv-x="512" d="M53.3333333333333 106.6666666666667H458.6666666666666V64H53.3333333333333zM206.5066666666667 228.9066666666667L299.3066666666666 204.16L412.5866666666667 173.8666666666667C429.6533333333333 169.3866666666667 447.1466666666667 179.4133333333334 451.84 196.48C456.32 213.5466666666668 446.2933333333333 231.0400000000001 429.2266666666667 235.7333333333334L315.9466666666667 266.0266666666667L257.0666666666667 458.4533333333333L215.8933333333333 469.3333333333333V292.6933333333334L109.8666666666667 321.0666666666667L90.0266666666667 370.5600000000001L59.0933333333333 378.88V268.5866666666667L93.2266666666667 259.4133333333334L206.5066666666667 228.9066666666667z" />
    <glyph glyph-name="flight_takeoff"
      unicode="&#x66;&#x6C;&#x69;&#x67;&#x68;&#x74;&#x5F;&#x74;&#x61;&#x6B;&#x65;&#x6F;&#x66;&#x66;"
      horiz-adv-x="512" d="M53.3333333333333 106.6666666666667H458.6666666666666V64H53.3333333333333zM470.8266666666667 306.3466666666667C466.3466666666666 323.4133333333334 448.64 333.6533333333333 431.5733333333333 328.9600000000001L318.2933333333333 298.6666666666667L171.0933333333333 435.8400000000001L129.92 424.9600000000001L218.24 272L112.2133333333333 243.6266666666667L70.1866666666667 276.48L39.2533333333334 268.1600000000001L78.08 200.7466666666667L94.5066666666667 172.3733333333333L128.64 181.5466666666667L241.92 211.84L334.72 236.5866666666667L448 266.88C465.28 271.7866666666667 475.3066666666667 289.2800000000001 470.8266666666667 306.3466666666667z" />
    <glyph glyph-name="flip_to_back"
      unicode="&#x66;&#x6C;&#x69;&#x70;&#x5F;&#x74;&#x6F;&#x5F;&#x62;&#x61;&#x63;&#x6B;"
      horiz-adv-x="512" d="M192 362.6666666666667H149.3333333333333V320H192V362.6666666666667zM192 277.3333333333334H149.3333333333333V234.6666666666667H192V277.3333333333334zM192 448C168.32 448 149.3333333333333 428.8 149.3333333333333 405.3333333333334H192V448zM277.3333333333333 192H234.6666666666667V149.3333333333334H277.3333333333333V192zM405.3333333333333 448V405.3333333333334H448C448 428.8 428.8 448 405.3333333333333 448zM277.3333333333333 448H234.6666666666667V405.3333333333334H277.3333333333333V448zM192 149.3333333333334V192H149.3333333333333C149.3333333333333 168.5333333333333 168.32 149.3333333333334 192 149.3333333333334zM405.3333333333333 234.6666666666667H448V277.3333333333334H405.3333333333333V234.6666666666667zM405.3333333333333 320H448V362.6666666666667H405.3333333333333V320zM405.3333333333333 149.3333333333334C428.8 149.3333333333334 448 168.5333333333333 448 192H405.3333333333333V149.3333333333334zM106.6666666666667 362.6666666666667H64V106.6666666666667C64 83.2 82.9866666666667 64 106.6666666666667 64H362.6666666666667V106.6666666666667H106.6666666666667V362.6666666666667zM320 405.3333333333334H362.6666666666667V448H320V405.3333333333334zM320 149.3333333333334H362.6666666666667V192H320V149.3333333333334z" />
    <glyph glyph-name="flip_to_front"
      unicode="&#x66;&#x6C;&#x69;&#x70;&#x5F;&#x74;&#x6F;&#x5F;&#x66;&#x72;&#x6F;&#x6E;&#x74;"
      horiz-adv-x="512" d="M64 234.6666666666667H106.6666666666667V277.3333333333334H64V234.6666666666667zM64 149.3333333333334H106.6666666666667V192H64V149.3333333333334zM106.6666666666667 64V106.6666666666667H64C64 83.2 82.9866666666667 64 106.6666666666667 64zM64 320H106.6666666666667V362.6666666666667H64V320zM320 64H362.6666666666667V106.6666666666667H320V64zM405.3333333333333 448H192C168.32 448 149.3333333333333 428.8 149.3333333333333 405.3333333333334V192C149.3333333333333 168.5333333333333 168.32 149.3333333333334 192 149.3333333333334H405.3333333333333C428.8 149.3333333333334 448 168.5333333333333 448 192V405.3333333333334C448 428.8 428.8 448 405.3333333333333 448zM405.3333333333333 192H192V405.3333333333334H405.3333333333333V192zM234.6666666666667 64H277.3333333333333V106.6666666666667H234.6666666666667V64zM149.3333333333333 64H192V106.6666666666667H149.3333333333333V64z" />
    <glyph glyph-name="gavel"
      unicode="&#x67;&#x61;&#x76;&#x65;&#x6C;"
      horiz-adv-x="512" d="M21.3333333333333 64H277.3333333333333V21.3333333333334H21.3333333333333zM111.8933333333333 339.8400000000001L172.2666666666667 400.1493333333334L473.92 98.4533333333334L413.5893333333334 38.1226666666668zM262.7626666666667 490.6666666666667L383.4453333333334 370.0053333333334L323.072 309.632L202.4533333333333 430.3786666666667zM81.6 309.6533333333334L202.2826666666667 188.9706666666667L141.952 128.6400000000001L21.2693333333333 249.3226666666667z" />
    <glyph glyph-name="get_app"
      unicode="&#x67;&#x65;&#x74;&#x5F;&#x61;&#x70;&#x70;"
      horiz-adv-x="512" d="M405.3333333333333 320H320V448H192V320H106.6666666666667L256 170.6666666666667L405.3333333333333 320zM106.6666666666667 128V85.3333333333334H405.3333333333333V128H106.6666666666667z" />
    <glyph glyph-name="gif"
      unicode="&#x67;&#x69;&#x66;"
      horiz-adv-x="512" d="M245.3333333333333 320H277.3333333333333V192H245.3333333333333zM192 320H128C115.2 320 106.6666666666667 309.3333333333334 106.6666666666667 298.6666666666667V213.3333333333334C106.6666666666667 202.6666666666667 115.2 192 128 192H192C204.8 192 213.3333333333333 202.6666666666667 213.3333333333333 213.3333333333334V256H181.3333333333333V224H138.6666666666667V288H213.3333333333333V298.6666666666667C213.3333333333333 309.3333333333334 204.8 320 192 320zM405.3333333333333 288V320H309.3333333333333V192H341.3333333333333V234.6666666666667H384V266.6666666666667H341.3333333333333V288z" />
    <glyph glyph-name="grade"
      unicode="&#x67;&#x72;&#x61;&#x64;&#x65;"
      horiz-adv-x="512" d="M256 143.5733333333334L387.84 64L352.8533333333333 213.9733333333334L469.3333333333333 314.88L315.9466666666666 327.8933333333333L256 469.3333333333333L196.0533333333333 327.8933333333333L42.6666666666667 314.88L159.1466666666667 213.9733333333334L124.16 64z" />
    <glyph glyph-name="group_work"
      unicode="&#x67;&#x72;&#x6F;&#x75;&#x70;&#x5F;&#x77;&#x6F;&#x72;&#x6B;"
      horiz-adv-x="512" d="M256 469.3333333333333C138.24 469.3333333333333 42.6666666666667 373.76 42.6666666666667 256S138.24 42.6666666666667 256 42.6666666666667S469.3333333333333 138.24 469.3333333333333 256S373.76 469.3333333333333 256 469.3333333333333zM170.6666666666667 138.6666666666667C141.2266666666667 138.6666666666667 117.3333333333333 162.5600000000001 117.3333333333333 192S141.2266666666667 245.3333333333334 170.6666666666667 245.3333333333334S224 221.44 224 192S200.1066666666666 138.6666666666667 170.6666666666667 138.6666666666667zM202.6666666666667 341.3333333333334C202.6666666666667 370.7733333333333 226.56 394.6666666666667 256 394.6666666666667S309.3333333333333 370.7733333333333 309.3333333333333 341.3333333333334S285.44 288 256 288S202.6666666666667 311.8933333333333 202.6666666666667 341.3333333333334zM341.3333333333333 138.6666666666667C311.8933333333333 138.6666666666667 288 162.5600000000001 288 192S311.8933333333333 245.3333333333334 341.3333333333333 245.3333333333334S394.6666666666667 221.44 394.6666666666667 192S370.7733333333333 138.6666666666667 341.3333333333333 138.6666666666667z" />
    <glyph glyph-name="g_translate"
      unicode="&#x67;&#x5F;&#x74;&#x72;&#x61;&#x6E;&#x73;&#x6C;&#x61;&#x74;&#x65;"
      horiz-adv-x="512" d="M426.6666666666667 405.3333333333334H232.1066666666667L213.3333333333333 469.3333333333333H85.3333333333333C61.8666666666667 469.3333333333333 42.6666666666667 450.1333333333334 42.6666666666667 426.6666666666667V149.3333333333334C42.6666666666667 125.8666666666667 61.8666666666667 106.6666666666667 85.3333333333333 106.6666666666667H234.6666666666667L256 42.6666666666667H426.6666666666667C450.1333333333334 42.6666666666667 469.3333333333333 61.8666666666667 469.3333333333333 85.3333333333334V362.6666666666667C469.3333333333333 386.1333333333334 450.1333333333334 405.3333333333334 426.6666666666667 405.3333333333334zM152.96 200.7466666666667C104.96 200.7466666666667 65.7066666666667 239.7866666666667 65.7066666666667 288S104.7466666666667 375.2533333333334 152.96 375.2533333333334C175.1466666666667 375.2533333333334 195.4133333333333 367.36 211.4133333333333 352.4266666666667L212.9066666666667 351.1466666666667L186.6666666666667 325.9733333333334L185.3866666666667 327.04C179.2 332.8 168.7466666666667 339.6266666666667 152.96 339.6266666666667C125.0133333333333 339.6266666666667 102.1866666666667 316.3733333333334 102.1866666666667 288S125.0133333333333 236.3733333333334 152.96 236.3733333333334C182.1866666666667 236.3733333333334 194.7733333333333 254.9333333333334 198.1866666666667 267.52H151.04V300.5866666666667H235.3066666666667L235.52 299.0933333333334C236.3733333333334 294.6133333333334 236.5866666666667 290.56 236.5866666666667 286.0800000000001C236.5866666666667 235.9466666666667 202.2400000000001 200.7466666666667 152.96 200.7466666666667zM281.6 237.2266666666667C288.64 224.4266666666667 297.3866666666667 212.0533333333334 306.9866666666666 200.96L295.4666666666666 189.6533333333334L281.5999999999999 237.2266666666668zM298.0266666666667 253.4400000000001H276.9066666666667L270.2933333333333 275.6266666666667H355.4133333333333S348.1599999999999 247.6800000000001 322.1333333333332 217.1733333333334C311.0399999999999 230.4000000000001 303.1466666666666 243.4133333333334 298.0266666666666 253.4400000000001zM448 85.3333333333334C448 73.6 438.4 64 426.6666666666667 64H277.3333333333333L320 106.6666666666667L302.72 165.76L322.3466666666667 185.3866666666667L379.52 128L395.0933333333333 143.5733333333334L337.28 200.7466666666667C356.4799999999999 222.72 371.4133333333333 248.7466666666667 378.2399999999999 275.6266666666667H405.3333333333333V297.8133333333334H327.68V320H305.4933333333334V297.8133333333334H263.68L238.5066666666667 384H426.6666666666667C438.4 384 448 374.4 448 362.6666666666667V85.3333333333334z" />
    <glyph glyph-name="help"
      unicode="&#x68;&#x65;&#x6C;&#x70;"
      horiz-adv-x="512" d="M256 469.3333333333333C138.24 469.3333333333333 42.6666666666667 373.76 42.6666666666667 256S138.24 42.6666666666667 256 42.6666666666667S469.3333333333333 138.24 469.3333333333333 256S373.76 469.3333333333333 256 469.3333333333333zM277.3333333333333 106.6666666666667H234.6666666666667V149.3333333333334H277.3333333333333V106.6666666666667zM321.4933333333334 272L302.2933333333333 252.3733333333334C286.9333333333333 236.8 277.3333333333333 224 277.3333333333333 192H234.6666666666667V202.6666666666667C234.6666666666667 226.1333333333334 244.2666666666667 247.4666666666667 259.6266666666667 263.04L286.08 289.92C293.9733333333333 297.6 298.6666666666667 308.2666666666667 298.6666666666667 320C298.6666666666667 343.4666666666667 279.4666666666667 362.6666666666667 256 362.6666666666667S213.3333333333333 343.4666666666667 213.3333333333333 320H170.6666666666667C170.6666666666667 367.1466666666667 208.8533333333333 405.3333333333334 256 405.3333333333334S341.3333333333333 367.1466666666667 341.3333333333333 320C341.3333333333333 301.2266666666667 333.6533333333333 284.1600000000001 321.4933333333334 272z" />
    <glyph glyph-name="help_outline"
      unicode="&#x68;&#x65;&#x6C;&#x70;&#x5F;&#x6F;&#x75;&#x74;&#x6C;&#x69;&#x6E;&#x65;"
      horiz-adv-x="512" d="M234.6666666666667 128H277.3333333333333V170.6666666666667H234.6666666666667V128zM256 469.3333333333333C138.24 469.3333333333333 42.6666666666667 373.76 42.6666666666667 256S138.24 42.6666666666667 256 42.6666666666667S469.3333333333333 138.24 469.3333333333333 256S373.76 469.3333333333333 256 469.3333333333333zM256 85.3333333333334C161.92 85.3333333333334 85.3333333333333 161.92 85.3333333333333 256S161.92 426.6666666666667 256 426.6666666666667S426.6666666666667 350.0800000000001 426.6666666666667 256S350.08 85.3333333333334 256 85.3333333333334zM256 384C208.8533333333333 384 170.6666666666667 345.8133333333334 170.6666666666667 298.6666666666667H213.3333333333333C213.3333333333333 322.1333333333334 232.5333333333334 341.3333333333334 256 341.3333333333334S298.6666666666667 322.1333333333334 298.6666666666667 298.6666666666667C298.6666666666667 256 234.6666666666667 261.3333333333334 234.6666666666667 192H277.3333333333333C277.3333333333333 240 341.3333333333333 245.3333333333334 341.3333333333333 298.6666666666667C341.3333333333333 345.8133333333334 303.1466666666667 384 256 384z" />
    <glyph glyph-name="highlight_off"
      unicode="&#x68;&#x69;&#x67;&#x68;&#x6C;&#x69;&#x67;&#x68;&#x74;&#x5F;&#x6F;&#x66;&#x66;"
      horiz-adv-x="512" d="M311.2533333333334 341.3333333333334L256 286.0800000000001L200.7466666666667 341.3333333333334L170.6666666666667 311.2533333333334L225.92 256L170.6666666666667 200.7466666666667L200.7466666666667 170.6666666666667L256 225.92L311.2533333333334 170.6666666666667L341.3333333333333 200.7466666666667L286.08 256L341.3333333333333 311.2533333333334L311.2533333333334 341.3333333333334zM256 469.3333333333333C138.0266666666667 469.3333333333333 42.6666666666667 373.9733333333334 42.6666666666667 256S138.0266666666667 42.6666666666667 256 42.6666666666667S469.3333333333333 138.0266666666667 469.3333333333333 256S373.9733333333334 469.3333333333333 256 469.3333333333333zM256 85.3333333333334C161.92 85.3333333333334 85.3333333333333 161.92 85.3333333333333 256S161.92 426.6666666666667 256 426.6666666666667S426.6666666666667 350.0800000000001 426.6666666666667 256S350.08 85.3333333333334 256 85.3333333333334z" />
    <glyph glyph-name="history"
      unicode="&#x68;&#x69;&#x73;&#x74;&#x6F;&#x72;&#x79;"
      horiz-adv-x="512" d="M277.3333333333333 448C171.3066666666667 448 85.3333333333333 362.0266666666667 85.3333333333333 256H21.3333333333333L104.32 173.0133333333333L105.8133333333334 170.0266666666667L192 256H128C128 338.5600000000001 194.7733333333333 405.3333333333334 277.3333333333333 405.3333333333334S426.6666666666667 338.5600000000001 426.6666666666667 256S359.8933333333333 106.6666666666667 277.3333333333333 106.6666666666667C236.16 106.6666666666667 198.8266666666667 123.52 171.9466666666666 150.6133333333334L141.6533333333333 120.3200000000001C176.4266666666667 85.5466666666667 224.2133333333333 64 277.3333333333333 64C383.36 64 469.3333333333333 149.9733333333334 469.3333333333333 256S383.36 448 277.3333333333333 448zM256 341.3333333333334V234.6666666666667L347.3066666666667 180.48L362.6666666666667 206.2933333333334L288 250.6666666666668V341.3333333333334H256z" />
    <glyph glyph-name="home"
      unicode="&#x68;&#x6F;&#x6D;&#x65;"
      horiz-adv-x="512" d="M213.3333333333333 85.3333333333334V213.3333333333334H298.6666666666667V85.3333333333334H405.3333333333333V256H469.3333333333333L256 448L42.6666666666667 256H106.6666666666667V85.3333333333334z" />
    <glyph glyph-name="hourglass_empty"
      unicode="&#x68;&#x6F;&#x75;&#x72;&#x67;&#x6C;&#x61;&#x73;&#x73;&#x5F;&#x65;&#x6D;&#x70;&#x74;&#x79;"
      horiz-adv-x="512" d="M128 469.3333333333333V341.3333333333334H128.2133333333333L128 341.12L213.3333333333333 256L128 170.6666666666667L128.2133333333333 170.4533333333333H128V42.6666666666667H384V170.4533333333334H383.7866666666667L384 170.6666666666667L298.6666666666667 256L384 341.12L383.7866666666667 341.3333333333334H384V469.3333333333333H128zM341.3333333333333 160V85.3333333333334H170.6666666666667V160L256 245.3333333333334L341.3333333333333 160zM256 266.6666666666667L170.6666666666667 352V426.6666666666667H341.3333333333333V352L256 266.6666666666667z" />
    <glyph glyph-name="hourglass_full"
      unicode="&#x68;&#x6F;&#x75;&#x72;&#x67;&#x6C;&#x61;&#x73;&#x73;&#x5F;&#x66;&#x75;&#x6C;&#x6C;"
      horiz-adv-x="512" d="M128 469.3333333333333V341.3333333333334H128.2133333333333L128 341.12L213.3333333333333 256L128 170.6666666666667L128.2133333333333 170.4533333333333H128V42.6666666666667H384V170.4533333333334H383.7866666666667L384 170.6666666666667L298.6666666666667 256L384 341.12L383.7866666666667 341.3333333333334H384V469.3333333333333H128z" />
    <glyph glyph-name="https"
      unicode="&#x68;&#x74;&#x74;&#x70;&#x73;"
      horiz-adv-x="512" d="M384 341.3333333333334H362.6666666666667V384C362.6666666666667 442.88 314.88 490.6666666666667 256 490.6666666666667S149.3333333333333 442.88 149.3333333333333 384V341.3333333333334H128C104.5333333333333 341.3333333333334 85.3333333333333 322.1333333333334 85.3333333333333 298.6666666666667V85.3333333333334C85.3333333333333 61.8666666666667 104.5333333333333 42.6666666666667 128 42.6666666666667H384C407.4666666666667 42.6666666666667 426.6666666666667 61.8666666666667 426.6666666666667 85.3333333333334V298.6666666666667C426.6666666666667 322.1333333333334 407.4666666666667 341.3333333333334 384 341.3333333333334zM256 149.3333333333334C232.5333333333334 149.3333333333334 213.3333333333333 168.5333333333333 213.3333333333333 192S232.5333333333334 234.6666666666667 256 234.6666666666667S298.6666666666667 215.4666666666667 298.6666666666667 192S279.4666666666667 149.3333333333334 256 149.3333333333334zM322.1333333333334 341.3333333333334H189.8666666666667V384C189.8666666666667 420.48 219.52 450.1333333333334 256 450.1333333333334C292.48 450.1333333333334 322.1333333333334 420.48 322.1333333333334 384V341.3333333333334z" />
    <glyph glyph-name="http"
      unicode="&#x68;&#x74;&#x74;&#x70;"
      horiz-adv-x="512" d="M96 277.3333333333334H53.3333333333333V320H21.3333333333333V192H53.3333333333333V245.3333333333334H96V192H128V320H96V277.3333333333334zM149.3333333333333 288H181.3333333333333V192H213.3333333333333V288H245.3333333333333V320H149.3333333333333V288zM266.6666666666667 288H298.6666666666667V192H330.6666666666667V288H362.6666666666667V320H266.6666666666667V288zM458.6666666666666 320H384V192H416V234.6666666666667H458.6666666666666C475.7333333333333 234.6666666666667 490.6666666666666 249.6 490.6666666666666 266.6666666666667V288C490.6666666666666 305.0666666666667 475.7333333333333 320 458.6666666666666 320zM458.6666666666666 266.6666666666667H416V288H458.6666666666666V266.6666666666667z" />
    <glyph glyph-name="important_devices"
      unicode="&#x69;&#x6D;&#x70;&#x6F;&#x72;&#x74;&#x61;&#x6E;&#x74;&#x5F;&#x64;&#x65;&#x76;&#x69;&#x63;&#x65;&#x73;"
      horiz-adv-x="512" d="M490.6666666666666 277.12L384 277.3333333333334C372.2666666666667 277.3333333333334 362.6666666666667 267.7333333333334 362.6666666666667 256V64C362.6666666666667 52.2666666666667 372.2666666666667 42.6666666666667 384 42.6666666666667H490.6666666666666C502.4 42.6666666666667 512 52.2666666666667 512 64V256C512 267.7333333333334 502.4 277.12 490.6666666666666 277.12zM490.6666666666666 85.3333333333334H384V234.6666666666667H490.6666666666666V85.3333333333334zM426.6666666666667 469.3333333333333H42.6666666666667C18.9866666666667 469.3333333333333 0 450.3466666666667 0 426.6666666666667V170.6666666666667C0 147.2 18.9866666666667 128 42.6666666666667 128H192V85.3333333333334H149.3333333333333V42.6666666666667H320V85.3333333333334H277.3333333333333V128H320V170.6666666666667H42.6666666666667V426.6666666666667H426.6666666666667V320H469.3333333333333V426.6666666666667C469.3333333333333 450.3466666666667 450.1333333333334 469.3333333333333 426.6666666666667 469.3333333333333zM255.36 320L234.6666666666667 384L213.9733333333333 320H149.3333333333333L202.0266666666667 282.4533333333334L181.9733333333334 220.3733333333333L234.6666666666667 258.7733333333334L287.36 220.3733333333333L267.3066666666668 282.4533333333334L320 320H255.36z" />
    <glyph glyph-name="info"
      unicode="&#x69;&#x6E;&#x66;&#x6F;"
      horiz-adv-x="512" d="M256 469.3333333333333C138.24 469.3333333333333 42.6666666666667 373.76 42.6666666666667 256S138.24 42.6666666666667 256 42.6666666666667S469.3333333333333 138.24 469.3333333333333 256S373.76 469.3333333333333 256 469.3333333333333zM277.3333333333333 149.3333333333334H234.6666666666667V277.3333333333334H277.3333333333333V149.3333333333334zM277.3333333333333 320H234.6666666666667V362.6666666666667H277.3333333333333V320z" />
    <glyph glyph-name="info_outline"
      unicode="&#x69;&#x6E;&#x66;&#x6F;&#x5F;&#x6F;&#x75;&#x74;&#x6C;&#x69;&#x6E;&#x65;"
      horiz-adv-x="512" d="M234.6666666666667 149.3333333333334H277.3333333333333V277.3333333333334H234.6666666666667V149.3333333333334zM256 469.3333333333333C138.24 469.3333333333333 42.6666666666667 373.76 42.6666666666667 256S138.24 42.6666666666667 256 42.6666666666667S469.3333333333333 138.24 469.3333333333333 256S373.76 469.3333333333333 256 469.3333333333333zM256 85.3333333333334C161.92 85.3333333333334 85.3333333333333 161.92 85.3333333333333 256S161.92 426.6666666666667 256 426.6666666666667S426.6666666666667 350.0800000000001 426.6666666666667 256S350.08 85.3333333333334 256 85.3333333333334zM234.6666666666667 320H277.3333333333333V362.6666666666667H234.6666666666667V320z" />
    <glyph glyph-name="input"
      unicode="&#x69;&#x6E;&#x70;&#x75;&#x74;"
      horiz-adv-x="512" d="M448 447.7866666666667H64C40.5333333333333 447.7866666666667 21.3333333333333 428.5866666666667 21.3333333333333 405.12V320H64V405.5466666666667H448V106.24H64V192H21.3333333333333V106.4533333333334C21.3333333333333 82.9866666666667 40.5333333333333 64.2133333333334 64 64.2133333333334H448C471.4666666666667 64.2133333333334 490.6666666666666 82.9866666666667 490.6666666666666 106.4533333333334V405.1200000000001C490.6666666666666 428.8000000000001 471.4666666666667 447.7866666666668 448 447.7866666666668zM234.6666666666667 170.6666666666667L320 256L234.6666666666667 341.3333333333334V277.3333333333334H21.3333333333333V234.6666666666667H234.6666666666667V170.6666666666667z" />
    </font>
</defs>
</svg>
